<svg width="138" height="47" viewBox="0 0 138 47" fill="none" xmlns="http://www.w3.org/2000/svg">
<path d="M0.107594 11.598V1.74H17.2816V47H6.24559V11.598H0.107594ZM24.5341 23.75C24.5341 16.6407 25.8981 11.04 28.6261 6.948C31.3955 2.856 35.8388 0.809996 41.9561 0.809996C48.0735 0.809996 52.4961 2.856 55.2241 6.948C57.9935 11.04 59.3781 16.6407 59.3781 23.75C59.3781 30.942 57.9935 36.584 55.2241 40.676C52.4961 44.768 48.0735 46.814 41.9561 46.814C35.8388 46.814 31.3955 44.768 28.6261 40.676C25.8981 36.584 24.5341 30.942 24.5341 23.75ZM48.9621 23.75C48.9621 19.5753 48.5075 16.372 47.5981 14.14C46.6888 11.8667 44.8081 10.73 41.9561 10.73C39.1041 10.73 37.2235 11.8667 36.3141 14.14C35.4048 16.372 34.9501 19.5753 34.9501 23.75C34.9501 26.5607 35.1155 28.896 35.4461 30.756C35.7768 32.5747 36.4381 34.0627 37.4301 35.22C38.4635 36.336 39.9721 36.894 41.9561 36.894C43.9401 36.894 45.4281 36.336 46.4201 35.22C47.4535 34.0627 48.1355 32.5747 48.4661 30.756C48.7968 28.896 48.9621 26.5607 48.9621 23.75ZM64.9795 23.75C64.9795 16.6407 66.3435 11.04 69.0715 6.948C71.8408 2.856 76.2841 0.809996 82.4015 0.809996C88.5188 0.809996 92.9415 2.856 95.6695 6.948C98.4388 11.04 99.8235 16.6407 99.8235 23.75C99.8235 30.942 98.4388 36.584 95.6695 40.676C92.9415 44.768 88.5188 46.814 82.4015 46.814C76.2841 46.814 71.8408 44.768 69.0715 40.676C66.3435 36.584 64.9795 30.942 64.9795 23.75ZM89.4075 23.75C89.4075 19.5753 88.9528 16.372 88.0435 14.14C87.1341 11.8667 85.2535 10.73 82.4015 10.73C79.5495 10.73 77.6688 11.8667 76.7595 14.14C75.8501 16.372 75.3955 19.5753 75.3955 23.75C75.3955 26.5607 75.5608 28.896 75.8915 30.756C76.2221 32.5747 76.8835 34.0627 77.8755 35.22C78.9088 36.336 80.4175 36.894 82.4015 36.894C84.3855 36.894 85.8735 36.336 86.8655 35.22C87.8988 34.0627 88.5808 32.5747 88.9115 30.756C89.2421 28.896 89.4075 26.5607 89.4075 23.75ZM137.913 30.074H127.125V41.11H117.081V30.074H106.293V20.588H117.081V9.49H127.125V20.588H137.913V30.074Z" fill="#0D1111"/>
</svg>
