<svg width="152" height="47" viewBox="0 0 152 47" fill="none" xmlns="http://www.w3.org/2000/svg">
<path d="M30.0848 10.978H10.7408V19.534C11.5674 18.6247 12.7248 17.8807 14.2128 17.302C15.7008 16.7233 17.3128 16.434 19.0488 16.434C22.1488 16.434 24.7114 17.1367 26.7368 18.542C28.8034 19.9473 30.3121 21.766 31.2628 23.998C32.2134 26.23 32.6888 28.648 32.6888 31.252C32.6888 36.088 31.3248 39.932 28.5968 42.784C25.8688 45.5947 22.0248 47 17.0648 47C13.7581 47 10.8854 46.442 8.44676 45.326C6.00809 44.1687 4.12742 42.5773 2.80476 40.552C1.48209 38.5267 0.758758 36.1913 0.634758 33.546H10.9888C11.2368 34.8273 11.8361 35.902 12.7868 36.77C13.7374 37.5967 15.0394 38.01 16.6928 38.01C18.6354 38.01 20.0821 37.39 21.0328 36.15C21.9834 34.91 22.4588 33.2567 22.4588 31.19C22.4588 29.1647 21.9628 27.6147 20.9708 26.54C19.9788 25.4653 18.5321 24.928 16.6308 24.928C15.2254 24.928 14.0681 25.2793 13.1588 25.982C12.2494 26.6433 11.6501 27.532 11.3608 28.648H1.13076V1.678H30.0848V10.978ZM38.541 23.75C38.541 16.6407 39.905 11.04 42.633 6.948C45.4023 2.856 49.8456 0.809996 55.963 0.809996C62.0803 0.809996 66.503 2.856 69.231 6.948C72.0003 11.04 73.385 16.6407 73.385 23.75C73.385 30.942 72.0003 36.584 69.231 40.676C66.503 44.768 62.0803 46.814 55.963 46.814C49.8456 46.814 45.4023 44.768 42.633 40.676C39.905 36.584 38.541 30.942 38.541 23.75ZM62.969 23.75C62.969 19.5753 62.5143 16.372 61.605 14.14C60.6956 11.8667 58.815 10.73 55.963 10.73C53.111 10.73 51.2303 11.8667 50.321 14.14C49.4116 16.372 48.957 19.5753 48.957 23.75C48.957 26.5607 49.1223 28.896 49.453 30.756C49.7836 32.5747 50.445 34.0627 51.437 35.22C52.4703 36.336 53.979 36.894 55.963 36.894C57.947 36.894 59.435 36.336 60.427 35.22C61.4603 34.0627 62.1423 32.5747 62.473 30.756C62.8036 28.896 62.969 26.5607 62.969 23.75ZM78.9863 23.75C78.9863 16.6407 80.3503 11.04 83.0783 6.948C85.8476 2.856 90.291 0.809996 96.4083 0.809996C102.526 0.809996 106.948 2.856 109.676 6.948C112.446 11.04 113.83 16.6407 113.83 23.75C113.83 30.942 112.446 36.584 109.676 40.676C106.948 44.768 102.526 46.814 96.4083 46.814C90.291 46.814 85.8476 44.768 83.0783 40.676C80.3503 36.584 78.9863 30.942 78.9863 23.75ZM103.414 23.75C103.414 19.5753 102.96 16.372 102.05 14.14C101.141 11.8667 99.2603 10.73 96.4083 10.73C93.5563 10.73 91.6756 11.8667 90.7663 14.14C89.857 16.372 89.4023 19.5753 89.4023 23.75C89.4023 26.5607 89.5676 28.896 89.8983 30.756C90.229 32.5747 90.8903 34.0627 91.8823 35.22C92.9156 36.336 94.4243 36.894 96.4083 36.894C98.3923 36.894 99.8803 36.336 100.872 35.22C101.906 34.0627 102.588 32.5747 102.918 30.756C103.249 28.896 103.414 26.5607 103.414 23.75ZM151.92 30.074H141.132V41.11H131.088V30.074H120.3V20.588H131.088V9.49H141.132V20.588H151.92V30.074Z" fill="#0D1111"/>
</svg>
