<svg width="162" height="15" viewBox="0 0 162 15" fill="none" xmlns="http://www.w3.org/2000/svg">
<path d="M6.152 6.288C6.74933 6.39467 7.256 6.70933 7.672 7.232C8.088 7.75467 8.296 8.34667 8.296 9.008C8.296 9.57333 8.14667 10.0853 7.848 10.544C7.56 10.992 7.13867 11.3493 6.584 11.616C6.02933 11.872 5.384 12 4.648 12H0.2V0.879999H4.44C5.19733 0.879999 5.848 1.008 6.392 1.264C6.936 1.52 7.34667 1.86667 7.624 2.304C7.90133 2.73067 8.04 3.21067 8.04 3.744C8.04 4.384 7.86933 4.91733 7.528 5.344C7.18667 5.77067 6.728 6.08533 6.152 6.288ZM2.024 5.552H4.28C4.87733 5.552 5.34133 5.41867 5.672 5.152C6.01333 4.87467 6.184 4.48 6.184 3.968C6.184 3.46667 6.01333 3.07733 5.672 2.8C5.34133 2.512 4.87733 2.368 4.28 2.368H2.024V5.552ZM4.488 10.512C5.10667 10.512 5.592 10.3627 5.944 10.064C6.296 9.76533 6.472 9.34933 6.472 8.816C6.472 8.272 6.28533 7.84 5.912 7.52C5.53867 7.2 5.04267 7.04 4.424 7.04H2.024V10.512H4.488ZM18.3581 7.376C18.3581 7.70667 18.3368 8.00533 18.2941 8.272H11.5581C11.6115 8.976 11.8728 9.54133 12.3421 9.968C12.8115 10.3947 13.3875 10.608 14.0701 10.608C15.0515 10.608 15.7448 10.1973 16.1501 9.376H18.1181C17.8515 10.1867 17.3661 10.8533 16.6621 11.376C15.9688 11.888 15.1048 12.144 14.0701 12.144C13.2275 12.144 12.4701 11.9573 11.7981 11.584C11.1368 11.2 10.6141 10.6667 10.2301 9.984C9.85679 9.29067 9.67013 8.49067 9.67013 7.584C9.67013 6.67733 9.85146 5.88267 10.2141 5.2C10.5875 4.50667 11.1048 3.97333 11.7661 3.6C12.4381 3.22667 13.2061 3.04 14.0701 3.04C14.9021 3.04 15.6435 3.22133 16.2941 3.584C16.9448 3.94667 17.4515 4.45867 17.8141 5.12C18.1768 5.77067 18.3581 6.52267 18.3581 7.376ZM16.4541 6.8C16.4435 6.128 16.2035 5.58933 15.7341 5.184C15.2648 4.77867 14.6835 4.576 13.9901 4.576C13.3608 4.576 12.8221 4.77867 12.3741 5.184C11.9261 5.57867 11.6595 6.11733 11.5741 6.8H16.4541ZM24.6011 3.04C25.2945 3.04 25.9131 3.184 26.4571 3.472C27.0118 3.76 27.4438 4.18667 27.7531 4.752C28.0625 5.31733 28.2171 6 28.2171 6.8V12H26.4091V7.072C26.4091 6.28267 26.2118 5.68 25.8171 5.264C25.4225 4.83733 24.8838 4.624 24.2011 4.624C23.5185 4.624 22.9745 4.83733 22.5691 5.264C22.1745 5.68 21.9771 6.28267 21.9771 7.072V12H20.1531V3.184H21.9771V4.192C22.2758 3.82933 22.6545 3.54667 23.1131 3.344C23.5825 3.14133 24.0785 3.04 24.6011 3.04ZM41.244 0.879999V2.368H36.524V5.648H40.204V7.136H36.524V12H34.7V0.879999H41.244ZM46.7584 12.144C45.9264 12.144 45.1744 11.9573 44.5024 11.584C43.8304 11.2 43.3024 10.6667 42.9184 9.984C42.5344 9.29067 42.3424 8.49067 42.3424 7.584C42.3424 6.688 42.5397 5.89333 42.9344 5.2C43.329 4.50667 43.8677 3.97333 44.5504 3.6C45.233 3.22667 45.9957 3.04 46.8384 3.04C47.681 3.04 48.4437 3.22667 49.1264 3.6C49.809 3.97333 50.3477 4.50667 50.7424 5.2C51.137 5.89333 51.3344 6.688 51.3344 7.584C51.3344 8.48 51.1317 9.27467 50.7264 9.968C50.321 10.6613 49.7664 11.2 49.0624 11.584C48.369 11.9573 47.601 12.144 46.7584 12.144ZM46.7584 10.56C47.2277 10.56 47.665 10.448 48.0704 10.224C48.4864 10 48.8224 9.664 49.0784 9.216C49.3344 8.768 49.4624 8.224 49.4624 7.584C49.4624 6.944 49.3397 6.40533 49.0944 5.968C48.849 5.52 48.5237 5.184 48.1184 4.96C47.713 4.736 47.2757 4.624 46.8064 4.624C46.337 4.624 45.8997 4.736 45.4944 4.96C45.0997 5.184 44.785 5.52 44.5504 5.968C44.3157 6.40533 44.1984 6.944 44.1984 7.584C44.1984 8.53333 44.4384 9.26933 44.9184 9.792C45.409 10.304 46.0224 10.56 46.7584 10.56ZM52.5295 7.552C52.5295 6.66667 52.7108 5.88267 53.0735 5.2C53.4468 4.51733 53.9482 3.98933 54.5775 3.616C55.2175 3.232 55.9215 3.04 56.6895 3.04C57.3828 3.04 57.9855 3.17867 58.4975 3.456C59.0202 3.72267 59.4362 4.05867 59.7455 4.464V3.184H61.5855V12H59.7455V10.688C59.4362 11.104 59.0148 11.4507 58.4815 11.728C57.9482 12.0053 57.3402 12.144 56.6575 12.144C55.9002 12.144 55.2068 11.952 54.5775 11.568C53.9482 11.1733 53.4468 10.6293 53.0735 9.936C52.7108 9.232 52.5295 8.43733 52.5295 7.552ZM59.7455 7.584C59.7455 6.976 59.6175 6.448 59.3615 6C59.1162 5.552 58.7908 5.21067 58.3855 4.976C57.9802 4.74133 57.5428 4.624 57.0735 4.624C56.6042 4.624 56.1668 4.74133 55.7615 4.976C55.3562 5.2 55.0255 5.536 54.7695 5.984C54.5242 6.42133 54.4015 6.944 54.4015 7.552C54.4015 8.16 54.5242 8.69333 54.7695 9.152C55.0255 9.61067 55.3562 9.96267 55.7615 10.208C56.1775 10.4427 56.6148 10.56 57.0735 10.56C57.5428 10.56 57.9802 10.4427 58.3855 10.208C58.7908 9.97333 59.1162 9.632 59.3615 9.184C59.6175 8.72533 59.7455 8.192 59.7455 7.584ZM67.4693 7.6L71.5333 12H69.0693L65.8053 8.208V12H63.9813V0.16H65.8053V7.04L69.0053 3.184H71.5333L67.4693 7.6ZM80.9206 7.376C80.9206 7.70667 80.8993 8.00533 80.8566 8.272H74.1206C74.174 8.976 74.4353 9.54133 74.9046 9.968C75.374 10.3947 75.95 10.608 76.6326 10.608C77.614 10.608 78.3073 10.1973 78.7126 9.376H80.6806C80.414 10.1867 79.9286 10.8533 79.2246 11.376C78.5313 11.888 77.6673 12.144 76.6326 12.144C75.79 12.144 75.0326 11.9573 74.3606 11.584C73.6993 11.2 73.1766 10.6667 72.7926 9.984C72.4193 9.29067 72.2326 8.49067 72.2326 7.584C72.2326 6.67733 72.414 5.88267 72.7766 5.2C73.15 4.50667 73.6673 3.97333 74.3286 3.6C75.0006 3.22667 75.7686 3.04 76.6326 3.04C77.4646 3.04 78.206 3.22133 78.8566 3.584C79.5073 3.94667 80.014 4.45867 80.3766 5.12C80.7393 5.77067 80.9206 6.52267 80.9206 7.376ZM79.0166 6.8C79.006 6.128 78.766 5.58933 78.2966 5.184C77.8273 4.77867 77.246 4.576 76.5526 4.576C75.9233 4.576 75.3846 4.77867 74.9366 5.184C74.4886 5.57867 74.222 6.11733 74.1366 6.8H79.0166ZM85.9156 12.144C85.2223 12.144 84.5983 12.0213 84.0436 11.776C83.4996 11.52 83.0676 11.1787 82.7476 10.752C82.4276 10.3147 82.257 9.82933 82.2356 9.296H84.1236C84.1556 9.66933 84.3316 9.984 84.6516 10.24C84.9823 10.4853 85.393 10.608 85.8836 10.608C86.3956 10.608 86.7903 10.512 87.0676 10.32C87.3556 10.1173 87.4996 9.86133 87.4996 9.552C87.4996 9.22133 87.3396 8.976 87.0196 8.816C86.7103 8.656 86.2143 8.48 85.5316 8.288C84.8703 8.10667 84.3316 7.93067 83.9156 7.76C83.4996 7.58933 83.137 7.328 82.8276 6.976C82.529 6.624 82.3796 6.16 82.3796 5.584C82.3796 5.11467 82.5183 4.688 82.7956 4.304C83.073 3.90933 83.4676 3.6 83.9796 3.376C84.5023 3.152 85.0996 3.04 85.7716 3.04C86.7743 3.04 87.5796 3.296 88.1876 3.808C88.8063 4.30933 89.137 4.99733 89.1796 5.872H87.3556C87.3236 5.47733 87.1636 5.16267 86.8756 4.928C86.5876 4.69333 86.1983 4.576 85.7076 4.576C85.2276 4.576 84.8596 4.66667 84.6036 4.848C84.3476 5.02933 84.2196 5.26933 84.2196 5.568C84.2196 5.80267 84.305 6 84.4756 6.16C84.6463 6.32 84.8543 6.448 85.0996 6.544C85.345 6.62933 85.7076 6.74133 86.1876 6.88C86.8276 7.05067 87.3503 7.22667 87.7556 7.408C88.1716 7.57867 88.529 7.83467 88.8276 8.176C89.1263 8.51733 89.281 8.97067 89.2916 9.536C89.2916 10.0373 89.153 10.4853 88.8756 10.88C88.5983 11.2747 88.2036 11.584 87.6916 11.808C87.1903 12.032 86.5983 12.144 85.9156 12.144ZM93.2625 9.808L91.3265 14.224H90.1425L91.2785 9.808H93.2625Z" fill="#070707"/>
<path d="M102.149 12.144C101.477 12.144 100.874 12.032 100.341 11.808C99.8072 11.5733 99.3858 11.2533 99.0765 10.848C98.7672 10.432 98.5965 9.95733 98.5645 9.424H100.069C100.111 9.86133 100.314 10.2187 100.677 10.496C101.05 10.7733 101.535 10.912 102.133 10.912C102.687 10.912 103.125 10.7893 103.445 10.544C103.765 10.2987 103.925 9.98933 103.925 9.616C103.925 9.232 103.754 8.94933 103.413 8.768C103.071 8.576 102.543 8.38933 101.829 8.208C101.178 8.03733 100.645 7.86667 100.229 7.696C99.8232 7.51467 99.4712 7.25333 99.1725 6.912C98.8845 6.56 98.7405 6.10133 98.7405 5.536C98.7405 5.088 98.8738 4.67733 99.1405 4.304C99.4072 3.93067 99.7858 3.63733 100.277 3.424C100.767 3.2 101.327 3.088 101.957 3.088C102.927 3.088 103.711 3.33333 104.309 3.824C104.906 4.31467 105.226 4.98667 105.269 5.84H103.813C103.781 5.38133 103.594 5.01333 103.253 4.736C102.922 4.45867 102.474 4.32 101.909 4.32C101.386 4.32 100.97 4.432 100.661 4.656C100.351 4.88 100.197 5.17333 100.197 5.536C100.197 5.824 100.287 6.064 100.469 6.256C100.661 6.43733 100.895 6.58667 101.173 6.704C101.461 6.81067 101.855 6.93333 102.357 7.072C102.986 7.24267 103.498 7.41333 103.893 7.584C104.287 7.744 104.623 7.98933 104.901 8.32C105.189 8.65067 105.338 9.08267 105.349 9.616C105.349 10.096 105.215 10.528 104.949 10.912C104.682 11.296 104.303 11.6 103.813 11.824C103.333 12.0373 102.778 12.144 102.149 12.144ZM109.18 4.432V9.6C109.18 10.0267 109.271 10.3307 109.452 10.512C109.633 10.6827 109.948 10.768 110.396 10.768H111.468V12H110.156C109.345 12 108.737 11.8133 108.332 11.44C107.927 11.0667 107.724 10.4533 107.724 9.6V4.432H106.588V3.232H107.724V1.024H109.18V3.232H111.468V4.432H109.18ZM121.008 3.232V12H119.552V10.704C119.275 11.152 118.885 11.504 118.384 11.76C117.893 12.0053 117.349 12.128 116.752 12.128C116.069 12.128 115.456 11.9893 114.912 11.712C114.368 11.424 113.936 10.9973 113.616 10.432C113.307 9.86667 113.152 9.17867 113.152 8.368V3.232H114.592V8.176C114.592 9.04 114.811 9.70667 115.248 10.176C115.685 10.6347 116.283 10.864 117.04 10.864C117.819 10.864 118.432 10.624 118.88 10.144C119.328 9.664 119.552 8.96533 119.552 8.048V3.232H121.008ZM122.922 7.584C122.922 6.688 123.104 5.904 123.466 5.232C123.829 4.54933 124.325 4.02133 124.954 3.648C125.594 3.27467 126.309 3.088 127.098 3.088C127.781 3.088 128.416 3.248 129.002 3.568C129.589 3.87733 130.037 4.288 130.346 4.8V0.16H131.818V12H130.346V10.352C130.058 10.8747 129.632 11.3067 129.066 11.648C128.501 11.9787 127.84 12.144 127.082 12.144C126.304 12.144 125.594 11.952 124.954 11.568C124.325 11.184 123.829 10.6453 123.466 9.952C123.104 9.25867 122.922 8.46933 122.922 7.584ZM130.346 7.6C130.346 6.93867 130.213 6.36267 129.946 5.872C129.68 5.38133 129.317 5.008 128.858 4.752C128.41 4.48533 127.914 4.352 127.37 4.352C126.826 4.352 126.33 4.48 125.882 4.736C125.434 4.992 125.077 5.36533 124.81 5.856C124.544 6.34667 124.41 6.92267 124.41 7.584C124.41 8.256 124.544 8.84267 124.81 9.344C125.077 9.83467 125.434 10.2133 125.882 10.48C126.33 10.736 126.826 10.864 127.37 10.864C127.914 10.864 128.41 10.736 128.858 10.48C129.317 10.2133 129.68 9.83467 129.946 9.344C130.213 8.84267 130.346 8.26133 130.346 7.6ZM142.279 7.28C142.279 7.55733 142.263 7.85067 142.231 8.16H135.223C135.276 9.024 135.57 9.70133 136.103 10.192C136.647 10.672 137.303 10.912 138.071 10.912C138.7 10.912 139.223 10.768 139.639 10.48C140.066 10.1813 140.364 9.78667 140.535 9.296H142.103C141.868 10.1387 141.399 10.8267 140.695 11.36C139.991 11.8827 139.116 12.144 138.071 12.144C137.239 12.144 136.492 11.9573 135.831 11.584C135.18 11.2107 134.668 10.6827 134.295 10C133.922 9.30667 133.735 8.50667 133.735 7.6C133.735 6.69333 133.916 5.89867 134.279 5.216C134.642 4.53333 135.148 4.01067 135.799 3.648C136.46 3.27467 137.218 3.088 138.071 3.088C138.903 3.088 139.639 3.26933 140.279 3.632C140.919 3.99467 141.41 4.496 141.751 5.136C142.103 5.76533 142.279 6.48 142.279 7.28ZM140.775 6.976C140.775 6.42133 140.652 5.94667 140.407 5.552C140.162 5.14667 139.826 4.84267 139.399 4.64C138.983 4.42667 138.519 4.32 138.007 4.32C137.271 4.32 136.642 4.55467 136.119 5.024C135.607 5.49333 135.314 6.144 135.239 6.976H140.775ZM148.473 3.072C149.539 3.072 150.403 3.39733 151.065 4.048C151.726 4.688 152.057 5.616 152.057 6.832V12H150.617V7.04C150.617 6.16533 150.398 5.49867 149.961 5.04C149.523 4.57067 148.926 4.336 148.169 4.336C147.401 4.336 146.787 4.576 146.329 5.056C145.881 5.536 145.657 6.23467 145.657 7.152V12H144.201V3.232H145.657V4.48C145.945 4.032 146.334 3.68533 146.825 3.44C147.326 3.19467 147.875 3.072 148.473 3.072ZM156.211 4.432V9.6C156.211 10.0267 156.302 10.3307 156.483 10.512C156.664 10.6827 156.979 10.768 157.427 10.768H158.499V12H157.187C156.376 12 155.768 11.8133 155.363 11.44C154.958 11.0667 154.755 10.4533 154.755 9.6V4.432H153.619V3.232H154.755V1.024H156.211V3.232H158.499V4.432H156.211ZM160.727 12.096C160.45 12.096 160.215 12 160.023 11.808C159.831 11.616 159.735 11.3813 159.735 11.104C159.735 10.8267 159.831 10.592 160.023 10.4C160.215 10.208 160.45 10.112 160.727 10.112C160.994 10.112 161.218 10.208 161.399 10.4C161.591 10.592 161.687 10.8267 161.687 11.104C161.687 11.3813 161.591 11.616 161.399 11.808C161.218 12 160.994 12.096 160.727 12.096Z" fill="#767E7E"/>
</svg>
