<svg width="107" height="40" viewBox="0 0 107 40" fill="none" xmlns="http://www.w3.org/2000/svg">
<g id="Group 5530">
<path id="Book" d="M0 4C0 1.79086 1.79086 0 4 0H34C35.1046 0 36 0.895431 36 2V38C36 39.1046 35.1046 40 34 40H4C1.79086 40 0 38.2091 0 36V4Z" fill="#FF8282"/>
<path id="Book_2" d="M6 32H30C31.1046 32 32 31.1046 32 30C32 28.8954 31.1046 28 30 28H6C4.89543 28 4 28.8954 4 30C4 31.1046 4.89543 32 6 32Z" fill="white"/>
<path id="Courses 1000+" d="M52.37 12.51C52.37 11.83 52.5267 11.22 52.84 10.68C53.16 10.14 53.59 9.72 54.13 9.42C54.6767 9.11333 55.2733 8.96 55.92 8.96C56.66 8.96 57.3167 9.14333 57.89 9.51C58.47 9.87 58.89 10.3833 59.15 11.05H57.78C57.6 10.6833 57.35 10.41 57.03 10.23C56.71 10.05 56.34 9.96 55.92 9.96C55.46 9.96 55.05 10.0633 54.69 10.27C54.33 10.4767 54.0467 10.7733 53.84 11.16C53.64 11.5467 53.54 11.9967 53.54 12.51C53.54 13.0233 53.64 13.4733 53.84 13.86C54.0467 14.2467 54.33 14.5467 54.69 14.76C55.05 14.9667 55.46 15.07 55.92 15.07C56.34 15.07 56.71 14.98 57.03 14.8C57.35 14.62 57.6 14.3467 57.78 13.98H59.15C58.89 14.6467 58.47 15.16 57.89 15.52C57.3167 15.88 56.66 16.06 55.92 16.06C55.2667 16.06 54.67 15.91 54.13 15.61C53.59 15.3033 53.16 14.88 52.84 14.34C52.5267 13.8 52.37 13.19 52.37 12.51ZM62.8744 16.09C62.3544 16.09 61.8844 15.9733 61.4644 15.74C61.0444 15.5 60.7144 15.1667 60.4744 14.74C60.2344 14.3067 60.1144 13.8067 60.1144 13.24C60.1144 12.68 60.2377 12.1833 60.4844 11.75C60.731 11.3167 61.0677 10.9833 61.4944 10.75C61.921 10.5167 62.3977 10.4 62.9244 10.4C63.451 10.4 63.9277 10.5167 64.3544 10.75C64.781 10.9833 65.1177 11.3167 65.3644 11.75C65.611 12.1833 65.7344 12.68 65.7344 13.24C65.7344 13.8 65.6077 14.2967 65.3544 14.73C65.101 15.1633 64.7544 15.5 64.3144 15.74C63.881 15.9733 63.401 16.09 62.8744 16.09ZM62.8744 15.1C63.1677 15.1 63.441 15.03 63.6944 14.89C63.9544 14.75 64.1644 14.54 64.3244 14.26C64.4844 13.98 64.5644 13.64 64.5644 13.24C64.5644 12.84 64.4877 12.5033 64.3344 12.23C64.181 11.95 63.9777 11.74 63.7244 11.6C63.471 11.46 63.1977 11.39 62.9044 11.39C62.611 11.39 62.3377 11.46 62.0844 11.6C61.8377 11.74 61.641 11.95 61.4944 12.23C61.3477 12.5033 61.2744 12.84 61.2744 13.24C61.2744 13.8333 61.4244 14.2933 61.7244 14.62C62.031 14.94 62.4144 15.1 62.8744 15.1ZM71.8513 10.49V16H70.7113V15.35C70.5313 15.5767 70.2947 15.7567 70.0013 15.89C69.7147 16.0167 69.408 16.08 69.0813 16.08C68.648 16.08 68.258 15.99 67.9113 15.81C67.5713 15.63 67.3013 15.3633 67.1013 15.01C66.908 14.6567 66.8113 14.23 66.8113 13.73V10.49H67.9413V13.56C67.9413 14.0533 68.0647 14.4333 68.3113 14.7C68.558 14.96 68.8947 15.09 69.3213 15.09C69.748 15.09 70.0847 14.96 70.3313 14.7C70.5847 14.4333 70.7113 14.0533 70.7113 13.56V10.49H71.8513ZM74.4955 11.29C74.6621 11.01 74.8821 10.7933 75.1555 10.64C75.4355 10.48 75.7655 10.4 76.1455 10.4V11.58H75.8555C75.4088 11.58 75.0688 11.6933 74.8355 11.92C74.6088 12.1467 74.4955 12.54 74.4955 13.1V16H73.3555V10.49H74.4955V11.29ZM79.1934 16.09C78.76 16.09 78.37 16.0133 78.0234 15.86C77.6834 15.7 77.4134 15.4867 77.2134 15.22C77.0134 14.9467 76.9067 14.6433 76.8934 14.31H78.0734C78.0934 14.5433 78.2034 14.74 78.4034 14.9C78.61 15.0533 78.8667 15.13 79.1734 15.13C79.4934 15.13 79.74 15.07 79.9134 14.95C80.0934 14.8233 80.1834 14.6633 80.1834 14.47C80.1834 14.2633 80.0834 14.11 79.8834 14.01C79.69 13.91 79.38 13.8 78.9534 13.68C78.54 13.5667 78.2034 13.4567 77.9434 13.35C77.6834 13.2433 77.4567 13.08 77.2634 12.86C77.0767 12.64 76.9834 12.35 76.9834 11.99C76.9834 11.6967 77.07 11.43 77.2434 11.19C77.4167 10.9433 77.6634 10.75 77.9834 10.61C78.31 10.47 78.6834 10.4 79.1034 10.4C79.73 10.4 80.2334 10.56 80.6134 10.88C81 11.1933 81.2067 11.6233 81.2334 12.17H80.0934C80.0734 11.9233 79.9734 11.7267 79.7934 11.58C79.6134 11.4333 79.37 11.36 79.0634 11.36C78.7634 11.36 78.5334 11.4167 78.3734 11.53C78.2134 11.6433 78.1334 11.7933 78.1334 11.98C78.1334 12.1267 78.1867 12.25 78.2934 12.35C78.4 12.45 78.53 12.53 78.6834 12.59C78.8367 12.6433 79.0634 12.7133 79.3634 12.8C79.7634 12.9067 80.09 13.0167 80.3434 13.13C80.6034 13.2367 80.8267 13.3967 81.0134 13.61C81.2 13.8233 81.2967 14.1067 81.3034 14.46C81.3034 14.7733 81.2167 15.0533 81.0434 15.3C80.87 15.5467 80.6234 15.74 80.3034 15.88C79.99 16.02 79.62 16.09 79.1934 16.09ZM87.5852 13.11C87.5852 13.3167 87.5718 13.5033 87.5452 13.67H83.3352C83.3685 14.11 83.5318 14.4633 83.8252 14.73C84.1185 14.9967 84.4785 15.13 84.9052 15.13C85.5185 15.13 85.9518 14.8733 86.2052 14.36H87.4352C87.2685 14.8667 86.9652 15.2833 86.5252 15.61C86.0918 15.93 85.5518 16.09 84.9052 16.09C84.3785 16.09 83.9052 15.9733 83.4852 15.74C83.0718 15.5 82.7452 15.1667 82.5052 14.74C82.2718 14.3067 82.1552 13.8067 82.1552 13.24C82.1552 12.6733 82.2685 12.1767 82.4952 11.75C82.7285 11.3167 83.0518 10.9833 83.4652 10.75C83.8852 10.5167 84.3652 10.4 84.9052 10.4C85.4252 10.4 85.8885 10.5133 86.2952 10.74C86.7018 10.9667 87.0185 11.2867 87.2452 11.7C87.4718 12.1067 87.5852 12.5767 87.5852 13.11ZM86.3952 12.75C86.3885 12.33 86.2385 11.9933 85.9452 11.74C85.6518 11.4867 85.2885 11.36 84.8552 11.36C84.4618 11.36 84.1252 11.4867 83.8452 11.74C83.5652 11.9867 83.3985 12.3233 83.3452 12.75H86.3952ZM90.707 16.09C90.2737 16.09 89.8837 16.0133 89.537 15.86C89.197 15.7 88.927 15.4867 88.727 15.22C88.527 14.9467 88.4204 14.6433 88.407 14.31H89.587C89.607 14.5433 89.717 14.74 89.917 14.9C90.1237 15.0533 90.3804 15.13 90.687 15.13C91.007 15.13 91.2537 15.07 91.427 14.95C91.607 14.8233 91.697 14.6633 91.697 14.47C91.697 14.2633 91.597 14.11 91.397 14.01C91.2037 13.91 90.8937 13.8 90.467 13.68C90.0537 13.5667 89.717 13.4567 89.457 13.35C89.197 13.2433 88.9704 13.08 88.777 12.86C88.5904 12.64 88.497 12.35 88.497 11.99C88.497 11.6967 88.5837 11.43 88.757 11.19C88.9304 10.9433 89.177 10.75 89.497 10.61C89.8237 10.47 90.197 10.4 90.617 10.4C91.2437 10.4 91.747 10.56 92.127 10.88C92.5137 11.1933 92.7204 11.6233 92.747 12.17H91.607C91.587 11.9233 91.487 11.7267 91.307 11.58C91.127 11.4333 90.8837 11.36 90.577 11.36C90.277 11.36 90.047 11.4167 89.887 11.53C89.727 11.6433 89.647 11.7933 89.647 11.98C89.647 12.1267 89.7004 12.25 89.807 12.35C89.9137 12.45 90.0437 12.53 90.197 12.59C90.3504 12.6433 90.577 12.7133 90.877 12.8C91.277 12.9067 91.6037 13.0167 91.857 13.13C92.117 13.2367 92.3404 13.3967 92.527 13.61C92.7137 13.8233 92.8104 14.1067 92.817 14.46C92.817 14.7733 92.7304 15.0533 92.557 15.3C92.3837 15.5467 92.137 15.74 91.817 15.88C91.5037 16.02 91.1337 16.09 90.707 16.09ZM52.45 24.75V23.71H54.53V31H53.38V24.75H52.45ZM56.0961 27.26C56.0961 26.1067 56.2894 25.2067 56.6761 24.56C57.0694 23.9067 57.7428 23.58 58.6961 23.58C59.6494 23.58 60.3194 23.9067 60.7061 24.56C61.0994 25.2067 61.2961 26.1067 61.2961 27.26C61.2961 28.4267 61.0994 29.34 60.7061 30C60.3194 30.6533 59.6494 30.98 58.6961 30.98C57.7428 30.98 57.0694 30.6533 56.6761 30C56.2894 29.34 56.0961 28.4267 56.0961 27.26ZM60.1761 27.26C60.1761 26.72 60.1394 26.2633 60.0661 25.89C59.9994 25.5167 59.8594 25.2133 59.6461 24.98C59.4328 24.74 59.1161 24.62 58.6961 24.62C58.2761 24.62 57.9594 24.74 57.7461 24.98C57.5328 25.2133 57.3894 25.5167 57.3161 25.89C57.2494 26.2633 57.2161 26.72 57.2161 27.26C57.2161 27.82 57.2494 28.29 57.3161 28.67C57.3828 29.05 57.5228 29.3567 57.7361 29.59C57.9561 29.8233 58.2761 29.94 58.6961 29.94C59.1161 29.94 59.4328 29.8233 59.6461 29.59C59.8661 29.3567 60.0094 29.05 60.0761 28.67C60.1428 28.29 60.1761 27.82 60.1761 27.26ZM62.5023 27.26C62.5023 26.1067 62.6957 25.2067 63.0823 24.56C63.4757 23.9067 64.149 23.58 65.1023 23.58C66.0557 23.58 66.7257 23.9067 67.1123 24.56C67.5057 25.2067 67.7023 26.1067 67.7023 27.26C67.7023 28.4267 67.5057 29.34 67.1123 30C66.7257 30.6533 66.0557 30.98 65.1023 30.98C64.149 30.98 63.4757 30.6533 63.0823 30C62.6957 29.34 62.5023 28.4267 62.5023 27.26ZM66.5823 27.26C66.5823 26.72 66.5457 26.2633 66.4723 25.89C66.4057 25.5167 66.2657 25.2133 66.0523 24.98C65.839 24.74 65.5223 24.62 65.1023 24.62C64.6823 24.62 64.3657 24.74 64.1523 24.98C63.939 25.2133 63.7957 25.5167 63.7223 25.89C63.6557 26.2633 63.6223 26.72 63.6223 27.26C63.6223 27.82 63.6557 28.29 63.7223 28.67C63.789 29.05 63.929 29.3567 64.1423 29.59C64.3623 29.8233 64.6823 29.94 65.1023 29.94C65.5223 29.94 65.839 29.8233 66.0523 29.59C66.2723 29.3567 66.4157 29.05 66.4823 28.67C66.549 28.29 66.5823 27.82 66.5823 27.26ZM68.9086 27.26C68.9086 26.1067 69.1019 25.2067 69.4886 24.56C69.8819 23.9067 70.5553 23.58 71.5086 23.58C72.4619 23.58 73.1319 23.9067 73.5186 24.56C73.9119 25.2067 74.1086 26.1067 74.1086 27.26C74.1086 28.4267 73.9119 29.34 73.5186 30C73.1319 30.6533 72.4619 30.98 71.5086 30.98C70.5553 30.98 69.8819 30.6533 69.4886 30C69.1019 29.34 68.9086 28.4267 68.9086 27.26ZM72.9886 27.26C72.9886 26.72 72.9519 26.2633 72.8786 25.89C72.8119 25.5167 72.6719 25.2133 72.4586 24.98C72.2453 24.74 71.9286 24.62 71.5086 24.62C71.0886 24.62 70.7719 24.74 70.5586 24.98C70.3453 25.2133 70.2019 25.5167 70.1286 25.89C70.0619 26.2633 70.0286 26.72 70.0286 27.26C70.0286 27.82 70.0619 28.29 70.1286 28.67C70.1953 29.05 70.3353 29.3567 70.5486 29.59C70.7686 29.8233 71.0886 29.94 71.5086 29.94C71.9286 29.94 72.2453 29.8233 72.4586 29.59C72.6786 29.3567 72.8219 29.05 72.8886 28.67C72.9553 28.29 72.9886 27.82 72.9886 27.26ZM80.8348 27.87H78.8148V29.94H77.7548V27.87H75.7348V26.91H77.7548V24.84H78.8148V26.91H80.8348V27.87Z" fill="#0D1111"/>
</g>
</svg>
