<svg width="86" height="20" viewBox="0 0 86 20" fill="none" xmlns="http://www.w3.org/2000/svg">
<path d="M6.536 6.848V8.032H1.688V11.792H5.624V12.976H1.688V18H0.232V6.848H6.536ZM16.2945 13.28C16.2945 13.5573 16.2785 13.8507 16.2465 14.16H9.2385C9.29183 15.024 9.58517 15.7013 10.1185 16.192C10.6625 16.672 11.3185 16.912 12.0865 16.912C12.7158 16.912 13.2385 16.768 13.6545 16.48C14.0812 16.1813 14.3798 15.7867 14.5505 15.296H16.1185C15.8838 16.1387 15.4145 16.8267 14.7105 17.36C14.0065 17.8827 13.1318 18.144 12.0865 18.144C11.2545 18.144 10.5078 17.9573 9.8465 17.584C9.19583 17.2107 8.68383 16.6827 8.3105 16C7.93717 15.3067 7.7505 14.5067 7.7505 13.6C7.7505 12.6933 7.93183 11.8987 8.2945 11.216C8.65717 10.5333 9.16383 10.0107 9.8145 9.648C10.4758 9.27467 11.2332 9.088 12.0865 9.088C12.9185 9.088 13.6545 9.26933 14.2945 9.632C14.9345 9.99467 15.4252 10.496 15.7665 11.136C16.1185 11.7653 16.2945 12.48 16.2945 13.28ZM14.7905 12.976C14.7905 12.4213 14.6678 11.9467 14.4225 11.552C14.1772 11.1467 13.8412 10.8427 13.4145 10.64C12.9985 10.4267 12.5345 10.32 12.0225 10.32C11.2865 10.32 10.6572 10.5547 10.1345 11.024C9.6225 11.4933 9.32917 12.144 9.2545 12.976H14.7905ZM26.2164 13.28C26.2164 13.5573 26.2004 13.8507 26.1684 14.16H19.1604C19.2137 15.024 19.507 15.7013 20.0404 16.192C20.5844 16.672 21.2404 16.912 22.0084 16.912C22.6377 16.912 23.1604 16.768 23.5764 16.48C24.003 16.1813 24.3017 15.7867 24.4724 15.296H26.0404C25.8057 16.1387 25.3364 16.8267 24.6324 17.36C23.9284 17.8827 23.0537 18.144 22.0084 18.144C21.1764 18.144 20.4297 17.9573 19.7684 17.584C19.1177 17.2107 18.6057 16.6827 18.2324 16C17.859 15.3067 17.6724 14.5067 17.6724 13.6C17.6724 12.6933 17.8537 11.8987 18.2164 11.216C18.579 10.5333 19.0857 10.0107 19.7364 9.648C20.3977 9.27467 21.155 9.088 22.0084 9.088C22.8404 9.088 23.5764 9.26933 24.2164 9.632C24.8564 9.99467 25.347 10.496 25.6884 11.136C26.0404 11.7653 26.2164 12.48 26.2164 13.28ZM24.7124 12.976C24.7124 12.4213 24.5897 11.9467 24.3444 11.552C24.099 11.1467 23.763 10.8427 23.3364 10.64C22.9204 10.4267 22.4564 10.32 21.9444 10.32C21.2084 10.32 20.579 10.5547 20.0564 11.024C19.5444 11.4933 19.251 12.144 19.1764 12.976H24.7124Z" fill="#767E7E"/>
<path d="M44.2179 13.512C44.2179 14.3187 44.0052 15.0667 43.5799 15.756C43.1692 16.4307 42.5532 16.988 41.7319 17.428C40.9252 17.8533 39.9645 18.088 38.8499 18.132V19.914H37.4419V18.11C35.8872 17.978 34.6332 17.516 33.6799 16.724C32.7265 15.9173 32.2205 14.8247 32.1619 13.446H36.1659C36.2539 14.326 36.6792 14.8907 37.4419 15.14V11.664C36.2979 11.3707 35.3812 11.0847 34.6919 10.806C34.0172 10.5273 33.4232 10.08 32.9099 9.464C32.3965 8.848 32.1399 8.00467 32.1399 6.934C32.1399 5.59933 32.6312 4.52867 33.6139 3.722C34.6112 2.91533 35.8872 2.46067 37.4419 2.358V0.575999H38.8499V2.358C40.3899 2.47533 41.6072 2.92267 42.5019 3.7C43.3965 4.47733 43.8952 5.55533 43.9979 6.934H39.9719C39.8839 6.142 39.5099 5.62867 38.8499 5.394V8.804C40.0672 9.14133 41.0059 9.442 41.6659 9.706C42.3259 9.97 42.9125 10.41 43.4259 11.026C43.9539 11.6273 44.2179 12.456 44.2179 13.512ZM36.1219 6.758C36.1219 7.12467 36.2319 7.43267 36.4519 7.682C36.6865 7.93133 37.0165 8.15133 37.4419 8.342V5.284C37.0312 5.35733 36.7085 5.51867 36.4739 5.768C36.2392 6.00267 36.1219 6.33267 36.1219 6.758ZM38.8499 15.206C39.2899 15.1327 39.6345 14.9567 39.8839 14.678C40.1479 14.3993 40.2799 14.0547 40.2799 13.644C40.2799 13.2627 40.1552 12.9547 39.9059 12.72C39.6712 12.4707 39.3192 12.258 38.8499 12.082V15.206ZM46.5103 14.986C47.009 14.59 47.2363 14.4067 47.1923 14.436C48.6297 13.248 49.759 12.2727 50.5803 11.51C51.4163 10.7473 52.1203 9.948 52.6923 9.112C53.2643 8.276 53.5503 7.462 53.5503 6.67C53.5503 6.06867 53.411 5.59933 53.1323 5.262C52.8537 4.92467 52.4357 4.756 51.8783 4.756C51.321 4.756 50.881 4.96867 50.5583 5.394C50.2503 5.80467 50.0963 6.39133 50.0963 7.154H46.4663C46.4957 5.90733 46.7597 4.866 47.2583 4.03C47.7717 3.194 48.439 2.578 49.2603 2.182C50.0963 1.786 51.0203 1.588 52.0323 1.588C53.7777 1.588 55.0903 2.03533 55.9703 2.93C56.865 3.82467 57.3123 4.99067 57.3123 6.428C57.3123 7.99733 56.777 9.45667 55.7063 10.806C54.6357 12.1407 53.2717 13.446 51.6143 14.722H57.5543V17.78H46.5103V14.986ZM59.2107 9.75C59.2107 7.22733 59.6947 5.24 60.6627 3.788C61.6454 2.336 63.222 1.61 65.3927 1.61C67.5634 1.61 69.1327 2.336 70.1007 3.788C71.0834 5.24 71.5747 7.22733 71.5747 9.75C71.5747 12.302 71.0834 14.304 70.1007 15.756C69.1327 17.208 67.5634 17.934 65.3927 17.934C63.222 17.934 61.6454 17.208 60.6627 15.756C59.6947 14.304 59.2107 12.302 59.2107 9.75ZM67.8787 9.75C67.8787 8.26867 67.7174 7.132 67.3947 6.34C67.072 5.53333 66.4047 5.13 65.3927 5.13C64.3807 5.13 63.7134 5.53333 63.3907 6.34C63.068 7.132 62.9067 8.26867 62.9067 9.75C62.9067 10.7473 62.9654 11.576 63.0827 12.236C63.2 12.8813 63.4347 13.4093 63.7867 13.82C64.1534 14.216 64.6887 14.414 65.3927 14.414C66.0967 14.414 66.6247 14.216 66.9767 13.82C67.3434 13.4093 67.5854 12.8813 67.7027 12.236C67.82 11.576 67.8787 10.7473 67.8787 9.75ZM73.5623 9.75C73.5623 7.22733 74.0463 5.24 75.0143 3.788C75.9969 2.336 77.5736 1.61 79.7443 1.61C81.9149 1.61 83.4843 2.336 84.4523 3.788C85.4349 5.24 85.9263 7.22733 85.9263 9.75C85.9263 12.302 85.4349 14.304 84.4523 15.756C83.4843 17.208 81.9149 17.934 79.7443 17.934C77.5736 17.934 75.9969 17.208 75.0143 15.756C74.0463 14.304 73.5623 12.302 73.5623 9.75ZM82.2303 9.75C82.2303 8.26867 82.0689 7.132 81.7463 6.34C81.4236 5.53333 80.7563 5.13 79.7443 5.13C78.7323 5.13 78.0649 5.53333 77.7423 6.34C77.4196 7.132 77.2583 8.26867 77.2583 9.75C77.2583 10.7473 77.3169 11.576 77.4343 12.236C77.5516 12.8813 77.7863 13.4093 78.1383 13.82C78.5049 14.216 79.0403 14.414 79.7443 14.414C80.4483 14.414 80.9763 14.216 81.3283 13.82C81.6949 13.4093 81.9369 12.8813 82.0543 12.236C82.1716 11.576 82.2303 10.7473 82.2303 9.75Z" fill="#0D1111"/>
</svg>
