<svg width="86" height="20" viewBox="0 0 86 20" fill="none" xmlns="http://www.w3.org/2000/svg">
<path d="M6.536 6.848V8.032H1.688V11.792H5.624V12.976H1.688V18H0.232V6.848H6.536ZM16.2945 13.28C16.2945 13.5573 16.2785 13.8507 16.2465 14.16H9.2385C9.29183 15.024 9.58517 15.7013 10.1185 16.192C10.6625 16.672 11.3185 16.912 12.0865 16.912C12.7158 16.912 13.2385 16.768 13.6545 16.48C14.0812 16.1813 14.3798 15.7867 14.5505 15.296H16.1185C15.8838 16.1387 15.4145 16.8267 14.7105 17.36C14.0065 17.8827 13.1318 18.144 12.0865 18.144C11.2545 18.144 10.5078 17.9573 9.8465 17.584C9.19583 17.2107 8.68383 16.6827 8.3105 16C7.93717 15.3067 7.7505 14.5067 7.7505 13.6C7.7505 12.6933 7.93183 11.8987 8.2945 11.216C8.65717 10.5333 9.16383 10.0107 9.8145 9.648C10.4758 9.27467 11.2332 9.088 12.0865 9.088C12.9185 9.088 13.6545 9.26933 14.2945 9.632C14.9345 9.99467 15.4252 10.496 15.7665 11.136C16.1185 11.7653 16.2945 12.48 16.2945 13.28ZM14.7905 12.976C14.7905 12.4213 14.6678 11.9467 14.4225 11.552C14.1772 11.1467 13.8412 10.8427 13.4145 10.64C12.9985 10.4267 12.5345 10.32 12.0225 10.32C11.2865 10.32 10.6572 10.5547 10.1345 11.024C9.6225 11.4933 9.32917 12.144 9.2545 12.976H14.7905ZM26.2164 13.28C26.2164 13.5573 26.2004 13.8507 26.1684 14.16H19.1604C19.2137 15.024 19.507 15.7013 20.0404 16.192C20.5844 16.672 21.2404 16.912 22.0084 16.912C22.6377 16.912 23.1604 16.768 23.5764 16.48C24.003 16.1813 24.3017 15.7867 24.4724 15.296H26.0404C25.8057 16.1387 25.3364 16.8267 24.6324 17.36C23.9284 17.8827 23.0537 18.144 22.0084 18.144C21.1764 18.144 20.4297 17.9573 19.7684 17.584C19.1177 17.2107 18.6057 16.6827 18.2324 16C17.859 15.3067 17.6724 14.5067 17.6724 13.6C17.6724 12.6933 17.8537 11.8987 18.2164 11.216C18.579 10.5333 19.0857 10.0107 19.7364 9.648C20.3977 9.27467 21.155 9.088 22.0084 9.088C22.8404 9.088 23.5764 9.26933 24.2164 9.632C24.8564 9.99467 25.347 10.496 25.6884 11.136C26.0404 11.7653 26.2164 12.48 26.2164 13.28ZM24.7124 12.976C24.7124 12.4213 24.5897 11.9467 24.3444 11.552C24.099 11.1467 23.763 10.8427 23.3364 10.64C22.9204 10.4267 22.4564 10.32 21.9444 10.32C21.2084 10.32 20.579 10.5547 20.0564 11.024C19.5444 11.4933 19.251 12.144 19.1764 12.976H24.7124Z" fill="#767E7E"/>
<path d="M43.1515 13.512C43.1515 14.3187 42.9388 15.0667 42.5135 15.756C42.1028 16.4307 41.4868 16.988 40.6655 17.428C39.8588 17.8533 38.8981 18.088 37.7835 18.132V19.914H36.3755V18.11C34.8208 17.978 33.5668 17.516 32.6135 16.724C31.6601 15.9173 31.1541 14.8247 31.0955 13.446H35.0995C35.1875 14.326 35.6128 14.8907 36.3755 15.14V11.664C35.2315 11.3707 34.3148 11.0847 33.6255 10.806C32.9508 10.5273 32.3568 10.08 31.8435 9.464C31.3301 8.848 31.0735 8.00467 31.0735 6.934C31.0735 5.59933 31.5648 4.52867 32.5475 3.722C33.5448 2.91533 34.8208 2.46067 36.3755 2.358V0.575999H37.7835V2.358C39.3235 2.47533 40.5408 2.92267 41.4355 3.7C42.3301 4.47733 42.8288 5.55533 42.9315 6.934H38.9055C38.8175 6.142 38.4435 5.62867 37.7835 5.394V8.804C39.0008 9.14133 39.9395 9.442 40.5995 9.706C41.2595 9.97 41.8461 10.41 42.3595 11.026C42.8875 11.6273 43.1515 12.456 43.1515 13.512ZM35.0555 6.758C35.0555 7.12467 35.1655 7.43267 35.3855 7.682C35.6201 7.93133 35.9501 8.15133 36.3755 8.342V5.284C35.9648 5.35733 35.6421 5.51867 35.4075 5.768C35.1728 6.00267 35.0555 6.33267 35.0555 6.758ZM37.7835 15.206C38.2235 15.1327 38.5681 14.9567 38.8175 14.678C39.0815 14.3993 39.2135 14.0547 39.2135 13.644C39.2135 13.2627 39.0888 12.9547 38.8395 12.72C38.6048 12.4707 38.2528 12.258 37.7835 12.082V15.206ZM45.7079 6.472C45.7666 4.90267 46.2799 3.69267 47.2479 2.842C48.2159 1.99133 49.5286 1.566 51.1859 1.566C52.2859 1.566 53.2246 1.75667 54.0019 2.138C54.7939 2.51933 55.3879 3.04 55.7839 3.7C56.1946 4.36 56.3999 5.10067 56.3999 5.922C56.3999 6.89 56.1579 7.682 55.6739 8.298C55.1899 8.89933 54.6253 9.31 53.9799 9.53V9.618C54.8159 9.89667 55.4759 10.3587 55.9599 11.004C56.4439 11.6493 56.6859 12.478 56.6859 13.49C56.6859 14.3993 56.4733 15.206 56.0479 15.91C55.6373 16.5993 55.0286 17.142 54.2219 17.538C53.4299 17.934 52.4839 18.132 51.3839 18.132C49.6239 18.132 48.2159 17.6993 47.1599 16.834C46.1186 15.9687 45.5686 14.6633 45.5099 12.918H49.1619C49.1766 13.5633 49.3599 14.0767 49.7119 14.458C50.0639 14.8247 50.5773 15.008 51.2519 15.008C51.8239 15.008 52.2639 14.8467 52.5719 14.524C52.8946 14.1867 53.0559 13.7467 53.0559 13.204C53.0559 12.5 52.8286 11.994 52.3739 11.686C51.9339 11.3633 51.2226 11.202 50.2399 11.202H49.5359V8.144H50.2399C50.9879 8.144 51.5893 8.01933 52.0439 7.77C52.5133 7.506 52.7479 7.044 52.7479 6.384C52.7479 5.856 52.6013 5.44533 52.3079 5.152C52.0146 4.85867 51.6113 4.712 51.0979 4.712C50.5406 4.712 50.1226 4.88067 49.8439 5.218C49.5799 5.55533 49.4259 5.97333 49.3819 6.472H45.7079ZM70.2043 5.218H63.3403V8.254C63.6336 7.93133 64.0443 7.66733 64.5723 7.462C65.1003 7.25667 65.6723 7.154 66.2883 7.154C67.3883 7.154 68.2976 7.40333 69.0162 7.902C69.7496 8.40067 70.2849 9.046 70.6223 9.838C70.9596 10.63 71.1283 11.488 71.1283 12.412C71.1283 14.128 70.6443 15.492 69.6763 16.504C68.7083 17.5013 67.3443 18 65.5843 18C64.4109 18 63.3916 17.802 62.5263 17.406C61.6609 16.9953 60.9936 16.4307 60.5243 15.712C60.0549 14.9933 59.7983 14.1647 59.7543 13.226H63.4283C63.5163 13.6807 63.7289 14.062 64.0663 14.37C64.4036 14.6633 64.8656 14.81 65.4523 14.81C66.1416 14.81 66.6549 14.59 66.9923 14.15C67.3296 13.71 67.4983 13.1233 67.4983 12.39C67.4983 11.6713 67.3223 11.1213 66.9703 10.74C66.6183 10.3587 66.1049 10.168 65.4303 10.168C64.9316 10.168 64.5209 10.2927 64.1983 10.542C63.8756 10.7767 63.6629 11.092 63.5602 11.488H59.9303V1.918H70.2043V5.218ZM73.2048 9.75C73.2048 7.22733 73.6888 5.24 74.6568 3.788C75.6395 2.336 77.2162 1.61 79.3868 1.61C81.5575 1.61 83.1268 2.336 84.0948 3.788C85.0775 5.24 85.5688 7.22733 85.5688 9.75C85.5688 12.302 85.0775 14.304 84.0948 15.756C83.1268 17.208 81.5575 17.934 79.3868 17.934C77.2162 17.934 75.6395 17.208 74.6568 15.756C73.6888 14.304 73.2048 12.302 73.2048 9.75ZM81.8728 9.75C81.8728 8.26867 81.7115 7.132 81.3888 6.34C81.0662 5.53333 80.3988 5.13 79.3868 5.13C78.3748 5.13 77.7075 5.53333 77.3848 6.34C77.0622 7.132 76.9008 8.26867 76.9008 9.75C76.9008 10.7473 76.9595 11.576 77.0768 12.236C77.1942 12.8813 77.4288 13.4093 77.7808 13.82C78.1475 14.216 78.6828 14.414 79.3868 14.414C80.0908 14.414 80.6188 14.216 80.9708 13.82C81.3375 13.4093 81.5795 12.8813 81.6968 12.236C81.8142 11.576 81.8728 10.7473 81.8728 9.75Z" fill="#0D1111"/>
</svg>
