<svg width="20" height="20" viewBox="0 0 20 20" fill="none" xmlns="http://www.w3.org/2000/svg">
<circle cx="10" cy="10" r="10" fill="white"/>
<path d="M13.2029 7.51703C13.6006 7.51703 13.9229 7.19467 13.9229 6.79703C13.9229 6.39938 13.6006 6.07703 13.2029 6.07703C12.8053 6.07703 12.4829 6.39938 12.4829 6.79703C12.4829 7.19467 12.8053 7.51703 13.2029 7.51703Z" fill="#0B120B"/>
<path d="M9.99995 6.91901C9.39058 6.91901 8.7949 7.0997 8.28823 7.43825C7.78157 7.77679 7.38667 8.25798 7.15347 8.82096C6.92028 9.38394 6.85927 10.0034 6.97815 10.6011C7.09703 11.1987 7.39047 11.7477 7.82135 12.1786C8.25224 12.6095 8.80122 12.9029 9.39887 13.0218C9.99653 13.1407 10.616 13.0797 11.179 12.8465C11.742 12.6133 12.2232 12.2184 12.5617 11.7117C12.9002 11.2051 13.0809 10.6094 13.0809 10C13.0809 9.18287 12.7563 8.39921 12.1785 7.82141C11.6007 7.24361 10.8171 6.91901 9.99995 6.91901ZM9.99995 12C9.60438 12 9.2177 11.8827 8.88881 11.6629C8.55991 11.4432 8.30356 11.1308 8.15219 10.7654C8.00081 10.3999 7.96121 9.99779 8.03838 9.60983C8.11555 9.22186 8.30603 8.8655 8.58573 8.58579C8.86544 8.30609 9.2218 8.11561 9.60977 8.03844C9.99773 7.96127 10.3999 8.00087 10.7653 8.15225C11.1308 8.30362 11.4431 8.55997 11.6629 8.88887C11.8826 9.21776 11.9999 9.60444 11.9999 10C11.9999 10.5304 11.7892 11.0391 11.4142 11.4142C11.0391 11.7893 10.5304 12 9.99995 12Z" fill="#0B120B"/>
<path d="M10 5.081C11.602 5.081 11.792 5.087 12.4245 5.116C12.8049 5.12052 13.1817 5.19037 13.5385 5.3225C13.7973 5.42235 14.0324 5.57527 14.2286 5.77144C14.4247 5.96761 14.5777 6.20267 14.6775 6.4615C14.8096 6.81826 14.8795 7.19508 14.884 7.5755C14.913 8.208 14.919 8.398 14.919 10.0005C14.919 11.603 14.913 11.792 14.884 12.4245C14.8795 12.8049 14.8096 13.1817 14.6775 13.5385C14.5777 13.7973 14.4247 14.0324 14.2286 14.2286C14.0324 14.4247 13.7973 14.5777 13.5385 14.6775C13.1817 14.8096 12.8049 14.8795 12.4245 14.884C11.792 14.913 11.602 14.919 10 14.919C8.398 14.919 8.208 14.913 7.5755 14.884C7.19508 14.8795 6.81826 14.8096 6.4615 14.6775C6.20267 14.5777 5.96761 14.4247 5.77144 14.2286C5.57527 14.0324 5.42235 13.7973 5.3225 13.5385C5.19037 13.1817 5.12052 12.8049 5.116 12.4245C5.087 11.792 5.081 11.602 5.081 10C5.081 8.398 5.087 8.208 5.116 7.5755C5.12052 7.19508 5.19037 6.81826 5.3225 6.4615C5.42235 6.20267 5.57527 5.96761 5.77144 5.77144C5.96761 5.57527 6.20267 5.42235 6.4615 5.3225C6.81826 5.19037 7.19508 5.12052 7.5755 5.116C8.208 5.087 8.398 5.081 10 5.081V5.081ZM10 4C8.3705 4 8.166 4.007 7.526 4.036C7.02839 4.04605 6.53608 4.14038 6.07 4.315C5.67136 4.46915 5.30933 4.70489 5.00711 5.00711C4.70489 5.30933 4.46915 5.67136 4.315 6.07C4.14033 6.53624 4.04599 7.02872 4.036 7.5265C4.007 8.1665 4 8.37 4 10C4 11.63 4.007 11.834 4.036 12.474C4.04605 12.9716 4.14038 13.4639 4.315 13.93C4.46915 14.3286 4.70489 14.6907 5.00711 14.9929C5.30933 15.2951 5.67136 15.5309 6.07 15.685C6.53624 15.8597 7.02872 15.954 7.5265 15.964C8.1665 15.993 8.3705 16 10 16C11.6295 16 11.834 15.993 12.474 15.964C12.9718 15.954 13.4643 15.8597 13.9305 15.685C14.3291 15.5309 14.6912 15.2951 14.9934 14.9929C15.2956 14.6907 15.5314 14.3286 15.6855 13.93C15.86 13.4637 15.9542 12.9713 15.964 12.4735C15.993 11.8335 16 11.63 16 10C16 8.37 15.993 8.166 15.964 7.526C15.954 7.02839 15.8596 6.53608 15.685 6.07C15.5309 5.67136 15.2951 5.30933 14.9929 5.00711C14.6907 4.70489 14.3286 4.46915 13.93 4.315C13.4637 4.1405 12.9713 4.04633 12.4735 4.0365C11.8335 4.0065 11.63 4 10 4Z" fill="#0B120B"/>
</svg>
