<svg width="20" height="20" viewBox="0 0 20 20" fill="none" xmlns="http://www.w3.org/2000/svg">
<circle cx="10" cy="10" r="10" fill="white"/>
<path d="M6.22487 7.44973C6.90134 7.44973 7.44973 6.90134 7.44973 6.22487C7.44973 5.54839 6.90134 5 6.22487 5C5.54839 5 5 5.54839 5 6.22487C5 6.90134 5.54839 7.44973 6.22487 7.44973Z" fill="#0B120B"/>
<path d="M8.60648 8.3779V15.1734H10.7164V11.8129C10.7164 10.9262 10.8832 10.0674 11.9827 10.0674C13.0671 10.0674 13.0805 11.0812 13.0805 11.8689V15.174H15.1915V11.4473C15.1915 9.61677 14.7974 8.20996 12.6578 8.20996C11.6306 8.20996 10.942 8.77369 10.6604 9.30719H10.6319V8.3779H8.60648V8.3779ZM5.16812 8.3779H7.28141V15.1734H5.16812V8.3779Z" fill="#0B120B"/>
</svg>
