<svg width="37" height="40" xmlns="http://www.w3.org/2000/svg" fill="none">

 <g>
  <title>Layer 1</title>
  <g id="Group 5530">
   <path fill="#FF8282" d="m0,4c0,-2.20914 1.79086,-4 4,-4l30,0c1.1046,0 2,0.89543 2,2l0,36c0,1.1046 -0.8954,2 -2,2l-30,0c-2.20914,0 -4,-1.7909 -4,-4l0,-32z" id="Book"/>
   <path fill="white" d="m6,32l24,0c1.1046,0 2,-0.8954 2,-2c0,-1.1046 -0.8954,-2 -2,-2l-24,0c-1.10457,0 -2,0.8954 -2,2c0,1.1046 0.89543,2 2,2z" id="Book_2"/>
   <path fill="#0D1111" d="m52.37,12.51c0,-0.68 0.1567,-1.29 0.47,-1.83c0.32,-0.54 0.75,-0.96 1.29,-1.26c0.5467,-0.30667 1.1433,-0.46 1.79,-0.46c0.74,0 1.3967,0.18333 1.97,0.55c0.58,0.36 1,0.8733 1.26,1.54l-1.37,0c-0.18,-0.3667 -0.43,-0.64 -0.75,-0.82c-0.32,-0.18 -0.69,-0.27 -1.11,-0.27c-0.46,0 -0.87,0.1033 -1.23,0.31c-0.36,0.2067 -0.6433,0.5033 -0.85,0.89c-0.2,0.3867 -0.3,0.8367 -0.3,1.35c0,0.5133 0.1,0.9633 0.3,1.35c0.2067,0.3867 0.49,0.6867 0.85,0.9c0.36,0.2067 0.77,0.31 1.23,0.31c0.42,0 0.79,-0.09 1.11,-0.27c0.32,-0.18 0.57,-0.4533 0.75,-0.82l1.37,0c-0.26,0.6667 -0.68,1.18 -1.26,1.54c-0.5733,0.36 -1.23,0.54 -1.97,0.54c-0.6533,0 -1.25,-0.15 -1.79,-0.45c-0.54,-0.3067 -0.97,-0.73 -1.29,-1.27c-0.3133,-0.54 -0.47,-1.15 -0.47,-1.83zm10.5044,3.58c-0.52,0 -0.99,-0.1167 -1.41,-0.35c-0.42,-0.24 -0.75,-0.5733 -0.99,-1c-0.24,-0.4333 -0.36,-0.9333 -0.36,-1.5c0,-0.56 0.1233,-1.0567 0.37,-1.49c0.2466,-0.4333 0.5833,-0.7667 1.01,-1c0.4266,-0.2333 0.9033,-0.35 1.43,-0.35c0.5266,0 1.0033,0.1167 1.43,0.35c0.4266,0.2333 0.7633,0.5667 1.01,1c0.2466,0.4333 0.37,0.93 0.37,1.49c0,0.56 -0.1267,1.0567 -0.38,1.49c-0.2534,0.4333 -0.6,0.77 -1.04,1.01c-0.4334,0.2333 -0.9134,0.35 -1.44,0.35zm0,-0.99c0.2933,0 0.5666,-0.07 0.82,-0.21c0.26,-0.14 0.47,-0.35 0.63,-0.63c0.16,-0.28 0.24,-0.62 0.24,-1.02c0,-0.4 -0.0767,-0.7367 -0.23,-1.01c-0.1534,-0.28 -0.3567,-0.49 -0.61,-0.63c-0.2534,-0.14 -0.5267,-0.21 -0.82,-0.21c-0.2934,0 -0.5667,0.07 -0.82,0.21c-0.2467,0.14 -0.4434,0.35 -0.59,0.63c-0.1467,0.2733 -0.22,0.61 -0.22,1.01c0,0.5933 0.15,1.0533 0.45,1.38c0.3066,0.32 0.69,0.48 1.15,0.48zm8.9769,-4.61l0,5.51l-1.14,0l0,-0.65c-0.18,0.2267 -0.4166,0.4067 -0.71,0.54c-0.2866,0.1267 -0.5933,0.19 -0.92,0.19c-0.4333,0 -0.8233,-0.09 -1.17,-0.27c-0.34,-0.18 -0.61,-0.4467 -0.81,-0.8c-0.1933,-0.3533 -0.29,-0.78 -0.29,-1.28l0,-3.24l1.13,0l0,3.07c0,0.4933 0.1234,0.8733 0.37,1.14c0.2467,0.26 0.5834,0.39 1.01,0.39c0.4267,0 0.7634,-0.13 1.01,-0.39c0.2534,-0.2667 0.38,-0.6467 0.38,-1.14l0,-3.07l1.14,0zm2.6442,0.8c0.1666,-0.28 0.3866,-0.4967 0.66,-0.65c0.28,-0.16 0.61,-0.24 0.99,-0.24l0,1.18l-0.29,0c-0.4467,0 -0.7867,0.1133 -1.02,0.34c-0.2267,0.2267 -0.34,0.62 -0.34,1.18l0,2.9l-1.14,0l0,-5.51l1.14,0l0,0.8zm4.6979,4.8c-0.4334,0 -0.8234,-0.0767 -1.17,-0.23c-0.34,-0.16 -0.61,-0.3733 -0.81,-0.64c-0.2,-0.2733 -0.3067,-0.5767 -0.32,-0.91l1.18,0c0.02,0.2333 0.13,0.43 0.33,0.59c0.2066,0.1533 0.4633,0.23 0.77,0.23c0.32,0 0.5666,-0.06 0.74,-0.18c0.18,-0.1267 0.27,-0.2867 0.27,-0.48c0,-0.2067 -0.1,-0.36 -0.3,-0.46c-0.1934,-0.1 -0.5034,-0.21 -0.93,-0.33c-0.4134,-0.1133 -0.75,-0.2233 -1.01,-0.33c-0.26,-0.1067 -0.4867,-0.27 -0.68,-0.49c-0.1867,-0.22 -0.28,-0.51 -0.28,-0.87c0,-0.2933 0.0866,-0.56 0.26,-0.8c0.1733,-0.2467 0.42,-0.44 0.74,-0.58c0.3266,-0.14 0.7,-0.21 1.12,-0.21c0.6266,0 1.13,0.16 1.51,0.48c0.3866,0.3133 0.5933,0.7433 0.62,1.29l-1.14,0c-0.02,-0.2467 -0.12,-0.4433 -0.3,-0.59c-0.18,-0.1467 -0.4234,-0.22 -0.73,-0.22c-0.3,0 -0.53,0.0567 -0.69,0.17c-0.16,0.1133 -0.24,0.2633 -0.24,0.45c0,0.1467 0.0533,0.27 0.16,0.37c0.1066,0.1 0.2366,0.18 0.39,0.24c0.1533,0.0533 0.38,0.1233 0.68,0.21c0.4,0.1067 0.7266,0.2167 0.98,0.33c0.26,0.1067 0.4833,0.2667 0.67,0.48c0.1866,0.2133 0.2833,0.4967 0.29,0.85c0,0.3133 -0.0867,0.5933 -0.26,0.84c-0.1734,0.2467 -0.42,0.44 -0.74,0.58c-0.3134,0.14 -0.6834,0.21 -1.11,0.21zm8.3918,-2.98c0,0.2067 -0.0134,0.3933 -0.04,0.56l-4.21,0c0.0333,0.44 0.1966,0.7933 0.49,1.06c0.2933,0.2667 0.6533,0.4 1.08,0.4c0.6133,0 1.0466,-0.2567 1.3,-0.77l1.23,0c-0.1667,0.5067 -0.47,0.9233 -0.91,1.25c-0.4334,0.32 -0.9734,0.48 -1.62,0.48c-0.5267,0 -1,-0.1167 -1.42,-0.35c-0.4134,-0.24 -0.74,-0.5733 -0.98,-1c-0.2334,-0.4333 -0.35,-0.9333 -0.35,-1.5c0,-0.5667 0.1133,-1.0633 0.34,-1.49c0.2333,-0.4333 0.5566,-0.7667 0.97,-1c0.42,-0.2333 0.9,-0.35 1.44,-0.35c0.52,0 0.9833,0.1133 1.39,0.34c0.4066,0.2267 0.7233,0.5467 0.95,0.96c0.2266,0.4067 0.34,0.8767 0.34,1.41zm-1.19,-0.36c-0.0067,-0.42 -0.1567,-0.7567 -0.45,-1.01c-0.2934,-0.2533 -0.6567,-0.38 -1.09,-0.38c-0.3934,0 -0.73,0.1267 -1.01,0.38c-0.28,0.2467 -0.4467,0.5833 -0.5,1.01l3.05,0zm4.3118,3.34c-0.4333,0 -0.8233,-0.0767 -1.17,-0.23c-0.34,-0.16 -0.61,-0.3733 -0.81,-0.64c-0.2,-0.2733 -0.3066,-0.5767 -0.32,-0.91l1.18,0c0.02,0.2333 0.13,0.43 0.33,0.59c0.2067,0.1533 0.4634,0.23 0.77,0.23c0.32,0 0.5667,-0.06 0.74,-0.18c0.18,-0.1267 0.27,-0.2867 0.27,-0.48c0,-0.2067 -0.1,-0.36 -0.3,-0.46c-0.1933,-0.1 -0.5033,-0.21 -0.93,-0.33c-0.4133,-0.1133 -0.75,-0.2233 -1.01,-0.33c-0.26,-0.1067 -0.4866,-0.27 -0.68,-0.49c-0.1866,-0.22 -0.28,-0.51 -0.28,-0.87c0,-0.2933 0.0867,-0.56 0.26,-0.8c0.1734,-0.2467 0.42,-0.44 0.74,-0.58c0.3267,-0.14 0.7,-0.21 1.12,-0.21c0.6267,0 1.13,0.16 1.51,0.48c0.3867,0.3133 0.5934,0.7433 0.62,1.29l-1.14,0c-0.02,-0.2467 -0.12,-0.4433 -0.3,-0.59c-0.18,-0.1467 -0.4233,-0.22 -0.73,-0.22c-0.3,0 -0.53,0.0567 -0.69,0.17c-0.16,0.1133 -0.24,0.2633 -0.24,0.45c0,0.1467 0.0534,0.27 0.16,0.37c0.1067,0.1 0.2367,0.18 0.39,0.24c0.1534,0.0533 0.38,0.1233 0.68,0.21c0.4,0.1067 0.7267,0.2167 0.98,0.33c0.26,0.1067 0.4834,0.2667 0.67,0.48c0.1867,0.2133 0.2834,0.4967 0.29,0.85c0,0.3133 -0.0866,0.5933 -0.26,0.84c-0.1733,0.2467 -0.42,0.44 -0.74,0.58c-0.3133,0.14 -0.6833,0.21 -1.11,0.21zm-38.257,8.66l0,-1.04l2.08,0l0,7.29l-1.15,0l0,-6.25l-0.93,0zm3.6461,2.51c0,-1.1533 0.1933,-2.0533 0.58,-2.7c0.3933,-0.6533 1.0667,-0.98 2.02,-0.98c0.9533,0 1.6233,0.3267 2.01,0.98c0.3933,0.6467 0.59,1.5467 0.59,2.7c0,1.1667 -0.1967,2.08 -0.59,2.74c-0.3867,0.6533 -1.0567,0.98 -2.01,0.98c-0.9533,0 -1.6267,-0.3267 -2.02,-0.98c-0.3867,-0.66 -0.58,-1.5733 -0.58,-2.74zm4.08,0c0,-0.54 -0.0367,-0.9967 -0.11,-1.37c-0.0667,-0.3733 -0.2067,-0.6767 -0.42,-0.91c-0.2133,-0.24 -0.53,-0.36 -0.95,-0.36c-0.42,0 -0.7367,0.12 -0.95,0.36c-0.2133,0.2333 -0.3567,0.5367 -0.43,0.91c-0.0667,0.3733 -0.1,0.83 -0.1,1.37c0,0.56 0.0333,1.03 0.1,1.41c0.0667,0.38 0.2067,0.6867 0.42,0.92c0.22,0.2333 0.54,0.35 0.96,0.35c0.42,0 0.7367,-0.1167 0.95,-0.35c0.22,-0.2333 0.3633,-0.54 0.43,-0.92c0.0667,-0.38 0.1,-0.85 0.1,-1.41zm2.3262,0c0,-1.1533 0.1934,-2.0533 0.58,-2.7c0.3934,-0.6533 1.0667,-0.98 2.02,-0.98c0.9534,0 1.6234,0.3267 2.01,0.98c0.3934,0.6467 0.59,1.5467 0.59,2.7c0,1.1667 -0.1966,2.08 -0.59,2.74c-0.3866,0.6533 -1.0566,0.98 -2.01,0.98c-0.9533,0 -1.6266,-0.3267 -2.02,-0.98c-0.3866,-0.66 -0.58,-1.5733 -0.58,-2.74zm4.08,0c0,-0.54 -0.0366,-0.9967 -0.11,-1.37c-0.0666,-0.3733 -0.2066,-0.6767 -0.42,-0.91c-0.2133,-0.24 -0.53,-0.36 -0.95,-0.36c-0.42,0 -0.7366,0.12 -0.95,0.36c-0.2133,0.2333 -0.3566,0.5367 -0.43,0.91c-0.0666,0.3733 -0.1,0.83 -0.1,1.37c0,0.56 0.0334,1.03 0.1,1.41c0.0667,0.38 0.2067,0.6867 0.42,0.92c0.22,0.2333 0.54,0.35 0.96,0.35c0.42,0 0.7367,-0.1167 0.95,-0.35c0.22,-0.2333 0.3634,-0.54 0.43,-0.92c0.0667,-0.38 0.1,-0.85 0.1,-1.41zm2.3263,0c0,-1.1533 0.1933,-2.0533 0.58,-2.7c0.3933,-0.6533 1.0667,-0.98 2.02,-0.98c0.9533,0 1.6233,0.3267 2.01,0.98c0.3933,0.6467 0.59,1.5467 0.59,2.7c0,1.1667 -0.1967,2.08 -0.59,2.74c-0.3867,0.6533 -1.0567,0.98 -2.01,0.98c-0.9533,0 -1.6267,-0.3267 -2.02,-0.98c-0.3867,-0.66 -0.58,-1.5733 -0.58,-2.74zm4.08,0c0,-0.54 -0.0367,-0.9967 -0.11,-1.37c-0.0667,-0.3733 -0.2067,-0.6767 -0.42,-0.91c-0.2133,-0.24 -0.53,-0.36 -0.95,-0.36c-0.42,0 -0.7367,0.12 -0.95,0.36c-0.2133,0.2333 -0.3567,0.5367 -0.43,0.91c-0.0667,0.3733 -0.1,0.83 -0.1,1.37c0,0.56 0.0333,1.03 0.1,1.41c0.0667,0.38 0.2067,0.6867 0.42,0.92c0.22,0.2333 0.54,0.35 0.96,0.35c0.42,0 0.7367,-0.1167 0.95,-0.35c0.22,-0.2333 0.3633,-0.54 0.43,-0.92c0.0667,-0.38 0.1,-0.85 0.1,-1.41zm7.8462,0.61l-2.02,0l0,2.07l-1.06,0l0,-2.07l-2.02,0l0,-0.96l2.02,0l0,-2.07l1.06,0l0,2.07l2.02,0l0,0.96z" id="Courses 1000+"/>
  </g>
 </g>
</svg>