<svg width="20" height="20" viewBox="0 0 20 20" fill="none" xmlns="http://www.w3.org/2000/svg">
<circle cx="10" cy="10" r="10" fill="white"/>
<path d="M16 6.06909C15.5955 6.24483 15.1553 6.37131 14.7018 6.42057C15.1726 6.1389 15.5251 5.69391 15.6933 5.16909C15.2516 5.43375 14.7676 5.61933 14.2629 5.71761C14.052 5.49051 13.7969 5.3096 13.5135 5.18614C13.2301 5.06268 12.9246 4.99932 12.6158 5.00001C11.3665 5.00001 10.3619 6.01983 10.3619 7.27131C10.3619 7.44705 10.383 7.62279 10.4174 7.79187C8.54681 7.69335 6.8785 6.79335 5.76938 5.41539C5.56728 5.76303 5.46138 6.15886 5.46268 6.56169C5.46268 7.34986 5.86059 8.04483 6.46737 8.45355C6.10979 8.43937 5.76058 8.34039 5.44814 8.16465V8.19261C5.44814 9.2963 6.22281 10.2109 7.25526 10.4213C7.0614 10.472 6.86199 10.498 6.6617 10.4985C6.51496 10.4985 6.37616 10.4839 6.23603 10.4639C6.52157 11.3639 7.35308 12.0176 8.34323 12.0389C7.56856 12.65 6.59825 13.0095 5.54465 13.0095C5.35561 13.0095 5.18111 13.0028 5 12.9815C5.9994 13.6272 7.18519 14 8.4622 14C12.6079 14 14.8763 10.5411 14.8763 7.53891C14.8763 7.44039 14.8763 7.34187 14.8697 7.24335C15.3086 6.91983 15.6933 6.51909 16 6.06909Z" fill="#0B120B"/>
</svg>
