<svg width="67" height="15" viewBox="0 0 67 15" fill="none" xmlns="http://www.w3.org/2000/svg">
<path d="M2.01302 8.83C2.90902 8.05533 3.61368 7.42067 4.12702 6.926C4.64968 6.422 5.08368 5.89933 5.42902 5.358C5.77435 4.81667 5.94702 4.27533 5.94702 3.734C5.94702 3.174 5.81168 2.73533 5.54102 2.418C5.27968 2.10067 4.86435 1.942 4.29502 1.942C3.74435 1.942 3.31502 2.11933 3.00702 2.474C2.70835 2.81933 2.54968 3.286 2.53102 3.874H0.991016C1.01902 2.81 1.33635 1.998 1.94302 1.438C2.55902 0.868666 3.33835 0.584 4.28102 0.584C5.29835 0.584 6.09168 0.864 6.66102 1.424C7.23968 1.984 7.52902 2.73067 7.52902 3.664C7.52902 4.336 7.35635 4.98467 7.01102 5.61C6.67502 6.226 6.26902 6.78133 5.79302 7.276C5.32635 7.76133 4.72902 8.326 4.00102 8.97L3.37102 9.53H7.80902V10.86H1.00502V9.698L2.01302 8.83ZM9.21109 5.764C9.21109 4.14933 9.48176 2.88933 10.0231 1.984C10.5738 1.06933 11.5164 0.611999 12.8511 0.611999C14.1858 0.611999 15.1238 1.06933 15.6651 1.984C16.2158 2.88933 16.4911 4.14933 16.4911 5.764C16.4911 7.39733 16.2158 8.676 15.6651 9.6C15.1238 10.5147 14.1858 10.972 12.8511 10.972C11.5164 10.972 10.5738 10.5147 10.0231 9.6C9.48176 8.676 9.21109 7.39733 9.21109 5.764ZM14.9231 5.764C14.9231 5.008 14.8718 4.36867 14.7691 3.846C14.6758 3.32333 14.4798 2.89867 14.1811 2.572C13.8824 2.236 13.4391 2.068 12.8511 2.068C12.2631 2.068 11.8198 2.236 11.5211 2.572C11.2224 2.89867 11.0218 3.32333 10.9191 3.846C10.8258 4.36867 10.7791 5.008 10.7791 5.764C10.7791 6.548 10.8258 7.206 10.9191 7.738C11.0124 8.27 11.2084 8.69933 11.5071 9.026C11.8151 9.35267 12.2631 9.516 12.8511 9.516C13.4391 9.516 13.8824 9.35267 14.1811 9.026C14.4891 8.69933 14.6898 8.27 14.7831 7.738C14.8764 7.206 14.9231 6.548 14.9231 5.764ZM18.1798 5.764C18.1798 4.14933 18.4505 2.88933 18.9918 1.984C19.5425 1.06933 20.4852 0.611999 21.8198 0.611999C23.1545 0.611999 24.0925 1.06933 24.6338 1.984C25.1845 2.88933 25.4598 4.14933 25.4598 5.764C25.4598 7.39733 25.1845 8.676 24.6338 9.6C24.0925 10.5147 23.1545 10.972 21.8198 10.972C20.4852 10.972 19.5425 10.5147 18.9918 9.6C18.4505 8.676 18.1798 7.39733 18.1798 5.764ZM23.8918 5.764C23.8918 5.008 23.8405 4.36867 23.7378 3.846C23.6445 3.32333 23.4485 2.89867 23.1498 2.572C22.8512 2.236 22.4078 2.068 21.8198 2.068C21.2318 2.068 20.7885 2.236 20.4898 2.572C20.1912 2.89867 19.9905 3.32333 19.8878 3.846C19.7945 4.36867 19.7478 5.008 19.7478 5.764C19.7478 6.548 19.7945 7.206 19.8878 7.738C19.9812 8.27 20.1772 8.69933 20.4758 9.026C20.7838 9.35267 21.2318 9.516 21.8198 9.516C22.4078 9.516 22.8512 9.35267 23.1498 9.026C23.4578 8.69933 23.6585 8.27 23.7518 7.738C23.8452 7.206 23.8918 6.548 23.8918 5.764ZM27.1486 5.764C27.1486 4.14933 27.4193 2.88933 27.9606 1.984C28.5113 1.06933 29.4539 0.611999 30.7886 0.611999C32.1233 0.611999 33.0613 1.06933 33.6026 1.984C34.1533 2.88933 34.4286 4.14933 34.4286 5.764C34.4286 7.39733 34.1533 8.676 33.6026 9.6C33.0613 10.5147 32.1233 10.972 30.7886 10.972C29.4539 10.972 28.5113 10.5147 27.9606 9.6C27.4193 8.676 27.1486 7.39733 27.1486 5.764ZM32.8606 5.764C32.8606 5.008 32.8093 4.36867 32.7066 3.846C32.6133 3.32333 32.4173 2.89867 32.1186 2.572C31.8199 2.236 31.3766 2.068 30.7886 2.068C30.2006 2.068 29.7573 2.236 29.4586 2.572C29.1599 2.89867 28.9593 3.32333 28.8566 3.846C28.7633 4.36867 28.7166 5.008 28.7166 5.764C28.7166 6.548 28.7633 7.206 28.8566 7.738C28.9499 8.27 29.1459 8.69933 29.4446 9.026C29.7526 9.35267 30.2006 9.516 30.7886 9.516C31.3766 9.516 31.8199 9.35267 32.1186 9.026C32.4266 8.69933 32.6273 8.27 32.7206 7.738C32.8139 7.206 32.8606 6.548 32.8606 5.764ZM43.1701 11.098C42.5167 11.098 41.9287 10.986 41.4061 10.762C40.8834 10.5287 40.4727 10.202 40.1741 9.782C39.8754 9.362 39.7261 8.872 39.7261 8.312H41.4341C41.4714 8.732 41.6347 9.07733 41.9241 9.348C42.2227 9.61867 42.6381 9.754 43.1701 9.754C43.7207 9.754 44.1501 9.62333 44.4581 9.362C44.7661 9.09133 44.9201 8.746 44.9201 8.326C44.9201 7.99933 44.8221 7.73333 44.6261 7.528C44.4394 7.32267 44.2014 7.164 43.9121 7.052C43.6321 6.94 43.2401 6.81867 42.7361 6.688C42.1014 6.52 41.5834 6.352 41.1821 6.184C40.7901 6.00667 40.4541 5.736 40.1741 5.372C39.8941 5.008 39.7541 4.52267 39.7541 3.916C39.7541 3.356 39.8941 2.866 40.1741 2.446C40.4541 2.026 40.8461 1.704 41.3501 1.48C41.8541 1.256 42.4374 1.144 43.1001 1.144C44.0427 1.144 44.8127 1.382 45.4101 1.858C46.0167 2.32467 46.3527 2.96867 46.4181 3.79H44.6541C44.6261 3.43533 44.4581 3.132 44.1501 2.88C43.8421 2.628 43.4361 2.502 42.9321 2.502C42.4747 2.502 42.1014 2.61867 41.8121 2.852C41.5227 3.08533 41.3781 3.42133 41.3781 3.86C41.3781 4.15867 41.4667 4.406 41.6441 4.602C41.8307 4.78867 42.0641 4.938 42.3441 5.05C42.6241 5.162 43.0067 5.28333 43.4921 5.414C44.1361 5.59133 44.6587 5.76867 45.0601 5.946C45.4707 6.12333 45.8161 6.39867 46.0961 6.772C46.3854 7.136 46.5301 7.626 46.5301 8.242C46.5301 8.73667 46.3947 9.20333 46.1241 9.642C45.8627 10.0807 45.4754 10.4353 44.9621 10.706C44.4581 10.9673 43.8607 11.098 43.1701 11.098ZM47.8813 7.108C47.8813 6.33333 48.0399 5.64733 48.3573 5.05C48.6839 4.45267 49.1226 3.99067 49.6733 3.664C50.2333 3.328 50.8539 3.16 51.5353 3.16C52.1326 3.16 52.6599 3.28133 53.1173 3.524C53.5839 3.76667 53.9433 4.06067 54.1953 4.406V3.286H55.8053V14.668H54.1953V9.88C53.9433 10.2253 53.5793 10.5193 53.1033 10.762C52.6273 11.0047 52.0859 11.126 51.4793 11.126C50.8166 11.126 50.2099 10.958 49.6593 10.622C49.1179 10.2767 48.6839 9.80067 48.3573 9.194C48.0399 8.578 47.8813 7.88267 47.8813 7.108ZM54.1953 7.136C54.1953 6.604 54.0833 6.142 53.8593 5.75C53.6446 5.358 53.3599 5.05933 53.0053 4.854C52.6506 4.64867 52.2679 4.546 51.8573 4.546C51.4466 4.546 51.0639 4.64867 50.7093 4.854C50.3546 5.05 50.0653 5.344 49.8413 5.736C49.6266 6.11867 49.5193 6.576 49.5193 7.108C49.5193 7.64 49.6266 8.10667 49.8413 8.508C50.0653 8.90933 50.3546 9.21733 50.7093 9.432C51.0733 9.63733 51.4559 9.74 51.8573 9.74C52.2679 9.74 52.6506 9.63733 53.0053 9.432C53.3599 9.22667 53.6446 8.928 53.8593 8.536C54.0833 8.13467 54.1953 7.668 54.1953 7.136ZM61.1356 4.588H59.7076V11H58.0976V4.588H57.1876V3.286H58.0976V2.74C58.0976 1.85333 58.3309 1.20933 58.7976 0.807999C59.2736 0.397333 60.0156 0.192 61.0236 0.192V1.522C60.5382 1.522 60.1976 1.61533 60.0016 1.802C59.8056 1.97933 59.7076 2.292 59.7076 2.74V3.286H61.1356V4.588ZM64.412 4.588V8.858C64.412 9.14733 64.4773 9.35733 64.608 9.488C64.748 9.60933 64.9813 9.67 65.308 9.67H66.288V11H65.028C64.3093 11 63.7587 10.832 63.376 10.496C62.9933 10.16 62.802 9.614 62.802 8.858V4.588H61.892V3.286H62.802V1.368H64.412V3.286H66.288V4.588H64.412Z" fill="#444444"/>
</svg>
