<svg width="93" height="18" viewBox="0 0 93 18" fill="none" xmlns="http://www.w3.org/2000/svg">
<path d="M6.09503 0H2.28635C1.02363 0 0 1.02363 0 2.28635V6.57681H1.80741V2.28635C1.80741 2.02184 2.02184 1.80741 2.28635 1.80741H6.09503V0Z" fill="#0889FE"/>
<path d="M11.6997 1.80741V0H15.7137C16.9764 0 18 1.02363 18 2.28635V6.57681H16.1926V2.28635C16.1926 2.02184 15.9782 1.80741 15.7137 1.80741H11.6997Z" fill="#0889FE"/>
<path d="M11.6997 16.1926H15.7137C15.9782 16.1926 16.1926 15.9782 16.1926 15.7137V12.1815H18V15.7137C18 16.9764 16.9764 18 15.7137 18H11.6997V16.1926Z" fill="#0889FE"/>
<path d="M1.80741 12.1815V15.7137C1.80741 15.9782 2.02184 16.1926 2.28635 16.1926H6.09503V18H2.28635C1.02363 18 0 16.9764 0 15.7137V12.1815H1.80741Z" fill="#0889FE"/>
<path d="M28.013 11.83C28.909 11.0553 29.6137 10.4207 30.127 9.926C30.6497 9.422 31.0837 8.89933 31.429 8.358C31.7743 7.81667 31.947 7.27533 31.947 6.734C31.947 6.174 31.8117 5.73533 31.541 5.418C31.2797 5.10067 30.8643 4.942 30.295 4.942C29.7443 4.942 29.315 5.11933 29.007 5.474C28.7083 5.81933 28.5497 6.286 28.531 6.874H26.991C27.019 5.81 27.3363 4.998 27.943 4.438C28.559 3.86867 29.3383 3.584 30.281 3.584C31.2983 3.584 32.0917 3.864 32.661 4.424C33.2397 4.984 33.529 5.73067 33.529 6.664C33.529 7.336 33.3563 7.98467 33.011 8.61C32.675 9.226 32.269 9.78133 31.793 10.276C31.3263 10.7613 30.729 11.326 30.001 11.97L29.371 12.53H33.809V13.86H27.005V12.698L28.013 11.83ZM35.2111 8.764C35.2111 7.14933 35.4818 5.88933 36.0231 4.984C36.5738 4.06933 37.5164 3.612 38.8511 3.612C40.1858 3.612 41.1238 4.06933 41.6651 4.984C42.2158 5.88933 42.4911 7.14933 42.4911 8.764C42.4911 10.3973 42.2158 11.676 41.6651 12.6C41.1238 13.5147 40.1858 13.972 38.8511 13.972C37.5164 13.972 36.5738 13.5147 36.0231 12.6C35.4818 11.676 35.2111 10.3973 35.2111 8.764ZM40.9231 8.764C40.9231 8.008 40.8718 7.36867 40.7691 6.846C40.6758 6.32333 40.4798 5.89867 40.1811 5.572C39.8824 5.236 39.4391 5.068 38.8511 5.068C38.2631 5.068 37.8198 5.236 37.5211 5.572C37.2224 5.89867 37.0218 6.32333 36.9191 6.846C36.8258 7.36867 36.7791 8.008 36.7791 8.764C36.7791 9.548 36.8258 10.206 36.9191 10.738C37.0124 11.27 37.2084 11.6993 37.5071 12.026C37.8151 12.3527 38.2631 12.516 38.8511 12.516C39.4391 12.516 39.8824 12.3527 40.1811 12.026C40.4891 11.6993 40.6898 11.27 40.7831 10.738C40.8764 10.206 40.9231 9.548 40.9231 8.764ZM44.1798 8.764C44.1798 7.14933 44.4505 5.88933 44.9918 4.984C45.5425 4.06933 46.4852 3.612 47.8198 3.612C49.1545 3.612 50.0925 4.06933 50.6338 4.984C51.1845 5.88933 51.4598 7.14933 51.4598 8.764C51.4598 10.3973 51.1845 11.676 50.6338 12.6C50.0925 13.5147 49.1545 13.972 47.8198 13.972C46.4852 13.972 45.5425 13.5147 44.9918 12.6C44.4505 11.676 44.1798 10.3973 44.1798 8.764ZM49.8918 8.764C49.8918 8.008 49.8405 7.36867 49.7378 6.846C49.6445 6.32333 49.4485 5.89867 49.1498 5.572C48.8512 5.236 48.4078 5.068 47.8198 5.068C47.2318 5.068 46.7885 5.236 46.4898 5.572C46.1912 5.89867 45.9905 6.32333 45.8878 6.846C45.7945 7.36867 45.7478 8.008 45.7478 8.764C45.7478 9.548 45.7945 10.206 45.8878 10.738C45.9812 11.27 46.1772 11.6993 46.4758 12.026C46.7838 12.3527 47.2318 12.516 47.8198 12.516C48.4078 12.516 48.8512 12.3527 49.1498 12.026C49.4578 11.6993 49.6585 11.27 49.7518 10.738C49.8452 10.206 49.8918 9.548 49.8918 8.764ZM53.1486 8.764C53.1486 7.14933 53.4193 5.88933 53.9606 4.984C54.5113 4.06933 55.4539 3.612 56.7886 3.612C58.1233 3.612 59.0613 4.06933 59.6026 4.984C60.1533 5.88933 60.4286 7.14933 60.4286 8.764C60.4286 10.3973 60.1533 11.676 59.6026 12.6C59.0613 13.5147 58.1233 13.972 56.7886 13.972C55.4539 13.972 54.5113 13.5147 53.9606 12.6C53.4193 11.676 53.1486 10.3973 53.1486 8.764ZM58.8606 8.764C58.8606 8.008 58.8093 7.36867 58.7066 6.846C58.6133 6.32333 58.4173 5.89867 58.1186 5.572C57.8199 5.236 57.3766 5.068 56.7886 5.068C56.2006 5.068 55.7573 5.236 55.4586 5.572C55.1599 5.89867 54.9593 6.32333 54.8566 6.846C54.7633 7.36867 54.7166 8.008 54.7166 8.764C54.7166 9.548 54.7633 10.206 54.8566 10.738C54.9499 11.27 55.1459 11.6993 55.4446 12.026C55.7526 12.3527 56.2006 12.516 56.7886 12.516C57.3766 12.516 57.8199 12.3527 58.1186 12.026C58.4266 11.6993 58.6273 11.27 58.7206 10.738C58.8139 10.206 58.8606 9.548 58.8606 8.764ZM69.1701 14.098C68.5167 14.098 67.9287 13.986 67.4061 13.762C66.8834 13.5287 66.4727 13.202 66.1741 12.782C65.8754 12.362 65.7261 11.872 65.7261 11.312H67.4341C67.4714 11.732 67.6347 12.0773 67.9241 12.348C68.2227 12.6187 68.6381 12.754 69.1701 12.754C69.7207 12.754 70.1501 12.6233 70.4581 12.362C70.7661 12.0913 70.9201 11.746 70.9201 11.326C70.9201 10.9993 70.8221 10.7333 70.6261 10.528C70.4394 10.3227 70.2014 10.164 69.9121 10.052C69.6321 9.94 69.2401 9.81867 68.7361 9.688C68.1014 9.52 67.5834 9.352 67.1821 9.184C66.7901 9.00667 66.4541 8.736 66.1741 8.372C65.8941 8.008 65.7541 7.52267 65.7541 6.916C65.7541 6.356 65.8941 5.866 66.1741 5.446C66.4541 5.026 66.8461 4.704 67.3501 4.48C67.8541 4.256 68.4374 4.144 69.1001 4.144C70.0427 4.144 70.8127 4.382 71.4101 4.858C72.0167 5.32467 72.3527 5.96867 72.4181 6.79H70.6541C70.6261 6.43533 70.4581 6.132 70.1501 5.88C69.8421 5.628 69.4361 5.502 68.9321 5.502C68.4747 5.502 68.1014 5.61867 67.8121 5.852C67.5227 6.08533 67.3781 6.42133 67.3781 6.86C67.3781 7.15867 67.4667 7.406 67.6441 7.602C67.8307 7.78867 68.0641 7.938 68.3441 8.05C68.6241 8.162 69.0067 8.28333 69.4921 8.414C70.1361 8.59133 70.6587 8.76867 71.0601 8.946C71.4707 9.12333 71.8161 9.39867 72.0961 9.772C72.3854 10.136 72.5301 10.626 72.5301 11.242C72.5301 11.7367 72.3947 12.2033 72.1241 12.642C71.8627 13.0807 71.4754 13.4353 70.9621 13.706C70.4581 13.9673 69.8607 14.098 69.1701 14.098ZM73.8813 10.108C73.8813 9.33333 74.0399 8.64733 74.3573 8.05C74.6839 7.45267 75.1226 6.99067 75.6733 6.664C76.2333 6.328 76.8539 6.16 77.5353 6.16C78.1326 6.16 78.6599 6.28133 79.1173 6.524C79.5839 6.76667 79.9433 7.06067 80.1953 7.406V6.286H81.8053V17.668H80.1953V12.88C79.9433 13.2253 79.5793 13.5193 79.1033 13.762C78.6273 14.0047 78.0859 14.126 77.4793 14.126C76.8166 14.126 76.2099 13.958 75.6593 13.622C75.1179 13.2767 74.6839 12.8007 74.3573 12.194C74.0399 11.578 73.8813 10.8827 73.8813 10.108ZM80.1953 10.136C80.1953 9.604 80.0833 9.142 79.8593 8.75C79.6446 8.358 79.3599 8.05933 79.0053 7.854C78.6506 7.64867 78.2679 7.546 77.8573 7.546C77.4466 7.546 77.0639 7.64867 76.7093 7.854C76.3546 8.05 76.0653 8.344 75.8413 8.736C75.6266 9.11867 75.5193 9.576 75.5193 10.108C75.5193 10.64 75.6266 11.1067 75.8413 11.508C76.0653 11.9093 76.3546 12.2173 76.7093 12.432C77.0733 12.6373 77.4559 12.74 77.8573 12.74C78.2679 12.74 78.6506 12.6373 79.0053 12.432C79.3599 12.2267 79.6446 11.928 79.8593 11.536C80.0833 11.1347 80.1953 10.668 80.1953 10.136ZM87.1356 7.588H85.7076V14H84.0976V7.588H83.1876V6.286H84.0976V5.74C84.0976 4.85333 84.3309 4.20933 84.7976 3.808C85.2736 3.39733 86.0156 3.192 87.0236 3.192V4.522C86.5382 4.522 86.1976 4.61533 86.0016 4.802C85.8056 4.97933 85.7076 5.292 85.7076 5.74V6.286H87.1356V7.588ZM90.412 7.588V11.858C90.412 12.1473 90.4773 12.3573 90.608 12.488C90.748 12.6093 90.9813 12.67 91.308 12.67H92.288V14H91.028C90.3093 14 89.7587 13.832 89.376 13.496C88.9933 13.16 88.802 12.614 88.802 11.858V7.588H87.892V6.286H88.802V4.368H90.412V6.286H92.288V7.588H90.412Z" fill="#444444"/>
</svg>
