<svg width="44" height="12" viewBox="0 0 44 12" fill="none" xmlns="http://www.w3.org/2000/svg">
<path d="M2.0052 8.83C2.9012 8.05533 3.60587 7.42067 4.1192 6.926C4.64187 6.422 5.07587 5.89933 5.4212 5.358C5.76654 4.81667 5.9392 4.27533 5.9392 3.734C5.9392 3.174 5.80387 2.73533 5.5332 2.418C5.27187 2.10067 4.85654 1.942 4.2872 1.942C3.73654 1.942 3.3072 2.11933 2.9992 2.474C2.70054 2.81933 2.54187 3.286 2.5232 3.874H0.983203C1.0112 2.81 1.32854 1.998 1.9352 1.438C2.5512 0.868666 3.33054 0.584 4.2732 0.584C5.29054 0.584 6.08387 0.864 6.6532 1.424C7.23187 1.984 7.5212 2.73067 7.5212 3.664C7.5212 4.336 7.34854 4.98467 7.0032 5.61C6.6672 6.226 6.2612 6.78133 5.7852 7.276C5.31854 7.76133 4.7212 8.326 3.9932 8.97L3.3632 9.53H7.8012V10.86H0.997203V9.698L2.0052 8.83ZM14.646 4.434C14.9167 4.06067 15.2853 3.75733 15.752 3.524C16.228 3.28133 16.7553 3.16 17.334 3.16C18.0153 3.16 18.6313 3.32333 19.182 3.65C19.7327 3.97667 20.1667 4.44333 20.484 5.05C20.8013 5.64733 20.96 6.33333 20.96 7.108C20.96 7.88267 20.8013 8.578 20.484 9.194C20.1667 9.80067 19.728 10.2767 19.168 10.622C18.6173 10.958 18.006 11.126 17.334 11.126C16.7367 11.126 16.2047 11.0093 15.738 10.776C15.2807 10.5427 14.9167 10.244 14.646 9.88V11H13.05V0.64H14.646V4.434ZM19.336 7.108C19.336 6.576 19.224 6.11867 19 5.736C18.7853 5.344 18.496 5.05 18.132 4.854C17.7773 4.64867 17.3947 4.546 16.984 4.546C16.5827 4.546 16.2 4.64867 15.836 4.854C15.4813 5.05933 15.192 5.358 14.968 5.75C14.7533 6.142 14.646 6.604 14.646 7.136C14.646 7.668 14.7533 8.13467 14.968 8.536C15.192 8.928 15.4813 9.22667 15.836 9.432C16.2 9.63733 16.5827 9.74 16.984 9.74C17.3947 9.74 17.7773 9.63733 18.132 9.432C18.496 9.21733 18.7853 8.90933 19 8.508C19.224 8.10667 19.336 7.64 19.336 7.108ZM25.8843 11.126C25.1563 11.126 24.4983 10.9627 23.9103 10.636C23.3223 10.3 22.8603 9.83333 22.5243 9.236C22.1883 8.62933 22.0203 7.92933 22.0203 7.136C22.0203 6.352 22.1929 5.65667 22.5383 5.05C22.8836 4.44333 23.3549 3.97667 23.9523 3.65C24.5496 3.32333 25.2169 3.16 25.9543 3.16C26.6916 3.16 27.3589 3.32333 27.9563 3.65C28.5536 3.97667 29.0249 4.44333 29.3703 5.05C29.7156 5.65667 29.8883 6.352 29.8883 7.136C29.8883 7.92 29.7109 8.61533 29.3563 9.222C29.0016 9.82867 28.5163 10.3 27.9003 10.636C27.2936 10.9627 26.6216 11.126 25.8843 11.126ZM25.8843 9.74C26.2949 9.74 26.6776 9.642 27.0323 9.446C27.3963 9.25 27.6903 8.956 27.9143 8.564C28.1383 8.172 28.2503 7.696 28.2503 7.136C28.2503 6.576 28.1429 6.10467 27.9283 5.722C27.7136 5.33 27.4289 5.036 27.0743 4.84C26.7196 4.644 26.3369 4.546 25.9263 4.546C25.5156 4.546 25.1329 4.644 24.7783 4.84C24.4329 5.036 24.1576 5.33 23.9523 5.722C23.7469 6.10467 23.6443 6.576 23.6443 7.136C23.6443 7.96667 23.8543 8.61067 24.2743 9.068C24.7036 9.516 25.2403 9.74 25.8843 9.74ZM33.328 4.588V8.858C33.328 9.14733 33.3933 9.35733 33.524 9.488C33.664 9.60933 33.8973 9.67 34.224 9.67H35.204V11H33.944C33.2253 11 32.6747 10.832 32.292 10.496C31.9093 10.16 31.718 9.614 31.718 8.858V4.588H30.808V3.286H31.718V1.368H33.328V3.286H35.204V4.588H33.328ZM40.665 3.16C41.253 3.16 41.7757 3.286 42.233 3.538C42.6997 3.79 43.0637 4.16333 43.325 4.658C43.5957 5.15267 43.731 5.75 43.731 6.45V11H42.149V6.688C42.149 5.99733 41.9763 5.47 41.631 5.106C41.2857 4.73267 40.8143 4.546 40.217 4.546C39.6197 4.546 39.1437 4.73267 38.789 5.106C38.4437 5.47 38.271 5.99733 38.271 6.688V11H36.675V0.64H38.271V4.182C38.5417 3.85533 38.8823 3.60333 39.293 3.426C39.713 3.24867 40.1703 3.16 40.665 3.16Z" fill="#444444"/>
</svg>
