<svg width="47" height="12" viewBox="0 0 47 12" fill="none" xmlns="http://www.w3.org/2000/svg">
<path d="M6.56805 2.166H1.87805V4.952C2.07405 4.69067 2.36338 4.47133 2.74605 4.294C3.13805 4.11667 3.55338 4.028 3.99205 4.028C4.77605 4.028 5.41071 4.196 5.89605 4.532C6.39071 4.868 6.74071 5.29267 6.94605 5.806C7.16071 6.31933 7.26805 6.86067 7.26805 7.43C7.26805 8.12067 7.13271 8.73667 6.86205 9.278C6.60071 9.81 6.20405 10.23 5.67205 10.538C5.14938 10.846 4.50538 11 3.74005 11C2.72271 11 1.90605 10.748 1.29005 10.244C0.674047 9.74 0.30538 9.07267 0.184047 8.242H1.73805C1.84071 8.68067 2.06938 9.03067 2.42405 9.292C2.77871 9.544 3.22205 9.67 3.75405 9.67C4.41671 9.67 4.91138 9.46933 5.23805 9.068C5.57405 8.66667 5.74205 8.13467 5.74205 7.472C5.74205 6.8 5.57405 6.28667 5.23805 5.932C4.90205 5.568 4.40738 5.386 3.75405 5.386C3.29671 5.386 2.90938 5.50267 2.59205 5.736C2.28405 5.96 2.06005 6.268 1.92005 6.66H0.408047V0.766H6.56805V2.166ZM18.2642 6.002C18.7868 6.09533 19.2302 6.37067 19.5942 6.828C19.9582 7.28533 20.1402 7.80333 20.1402 8.382C20.1402 8.87667 20.0095 9.32467 19.7482 9.726C19.4962 10.118 19.1275 10.4307 18.6422 10.664C18.1568 10.888 17.5922 11 16.9482 11H13.0562V1.27H16.7662C17.4288 1.27 17.9982 1.382 18.4742 1.606C18.9502 1.83 19.3095 2.13333 19.5522 2.516C19.7948 2.88933 19.9162 3.30933 19.9162 3.776C19.9162 4.336 19.7668 4.80267 19.4682 5.176C19.1695 5.54933 18.7682 5.82467 18.2642 6.002ZM14.6522 5.358H16.6262C17.1488 5.358 17.5548 5.24133 17.8442 5.008C18.1428 4.76533 18.2922 4.42 18.2922 3.972C18.2922 3.53333 18.1428 3.19267 17.8442 2.95C17.5548 2.698 17.1488 2.572 16.6262 2.572H14.6522V5.358ZM16.8082 9.698C17.3495 9.698 17.7742 9.56733 18.0822 9.306C18.3902 9.04467 18.5442 8.68067 18.5442 8.214C18.5442 7.738 18.3808 7.36 18.0542 7.08C17.7275 6.8 17.2935 6.66 16.7522 6.66H14.6522V9.698H16.8082ZM29.0845 6.954C29.0845 7.24333 29.0659 7.50467 29.0285 7.738H23.1345C23.1812 8.354 23.4099 8.84867 23.8205 9.222C24.2312 9.59533 24.7352 9.782 25.3325 9.782C26.1912 9.782 26.7979 9.42267 27.1525 8.704H28.8745C28.6412 9.41333 28.2165 9.99667 27.6005 10.454C26.9939 10.902 26.2379 11.126 25.3325 11.126C24.5952 11.126 23.9325 10.9627 23.3445 10.636C22.7659 10.3 22.3085 9.83333 21.9725 9.236C21.6459 8.62933 21.4825 7.92933 21.4825 7.136C21.4825 6.34267 21.6412 5.64733 21.9585 5.05C22.2852 4.44333 22.7379 3.97667 23.3165 3.65C23.9045 3.32333 24.5765 3.16 25.3325 3.16C26.0605 3.16 26.7092 3.31867 27.2785 3.636C27.8479 3.95333 28.2912 4.40133 28.6085 4.98C28.9259 5.54933 29.0845 6.20733 29.0845 6.954ZM27.4185 6.45C27.4092 5.862 27.1992 5.39067 26.7885 5.036C26.3779 4.68133 25.8692 4.504 25.2625 4.504C24.7119 4.504 24.2405 4.68133 23.8485 5.036C23.4565 5.38133 23.2232 5.85267 23.1485 6.45H27.4185ZM30.2632 7.108C30.2632 6.33333 30.4218 5.64733 30.7392 5.05C31.0658 4.45267 31.5045 3.99067 32.0552 3.664C32.6152 3.328 33.2358 3.16 33.9172 3.16C34.4212 3.16 34.9158 3.272 35.4012 3.496C35.8958 3.71067 36.2878 4 36.5772 4.364V0.64H38.1872V11H36.5772V9.838C36.3158 10.2113 35.9518 10.5193 35.4852 10.762C35.0278 11.0047 34.5005 11.126 33.9032 11.126C33.2312 11.126 32.6152 10.958 32.0552 10.622C31.5045 10.2767 31.0658 9.80067 30.7392 9.194C30.4218 8.578 30.2632 7.88267 30.2632 7.108ZM36.5772 7.136C36.5772 6.604 36.4652 6.142 36.2412 5.75C36.0265 5.358 35.7418 5.05933 35.3872 4.854C35.0325 4.64867 34.6498 4.546 34.2392 4.546C33.8285 4.546 33.4458 4.64867 33.0912 4.854C32.7365 5.05 32.4472 5.344 32.2232 5.736C32.0085 6.11867 31.9012 6.576 31.9012 7.108C31.9012 7.64 32.0085 8.10667 32.2232 8.508C32.4472 8.90933 32.7365 9.21733 33.0912 9.432C33.4552 9.63733 33.8378 9.74 34.2392 9.74C34.6498 9.74 35.0325 9.63733 35.3872 9.432C35.7418 9.22667 36.0265 8.928 36.2412 8.536C36.4652 8.13467 36.5772 7.668 36.5772 7.136ZM43.2234 11.126C42.6168 11.126 42.0708 11.0187 41.5854 10.804C41.1094 10.58 40.7314 10.2813 40.4514 9.908C40.1714 9.52533 40.0221 9.10067 40.0034 8.634H41.6554C41.6834 8.96067 41.8374 9.236 42.1174 9.46C42.4068 9.67467 42.7661 9.782 43.1954 9.782C43.6434 9.782 43.9888 9.698 44.2314 9.53C44.4834 9.35267 44.6094 9.12867 44.6094 8.858C44.6094 8.56867 44.4694 8.354 44.1894 8.214C43.9188 8.074 43.4848 7.92 42.8874 7.752C42.3088 7.59333 41.8374 7.43933 41.4734 7.29C41.1094 7.14067 40.7921 6.912 40.5214 6.604C40.2601 6.296 40.1294 5.89 40.1294 5.386C40.1294 4.97533 40.2508 4.602 40.4934 4.266C40.7361 3.92067 41.0814 3.65 41.5294 3.454C41.9868 3.258 42.5094 3.16 43.0974 3.16C43.9748 3.16 44.6794 3.384 45.2114 3.832C45.7528 4.27067 46.0421 4.87267 46.0794 5.638H44.4834C44.4554 5.29267 44.3154 5.01733 44.0634 4.812C43.8114 4.60667 43.4708 4.504 43.0414 4.504C42.6214 4.504 42.2994 4.58333 42.0754 4.742C41.8514 4.90067 41.7394 5.11067 41.7394 5.372C41.7394 5.57733 41.8141 5.75 41.9634 5.89C42.1128 6.03 42.2948 6.142 42.5094 6.226C42.7241 6.30067 43.0414 6.39867 43.4614 6.52C44.0214 6.66933 44.4788 6.82333 44.8334 6.982C45.1974 7.13133 45.5101 7.35533 45.7714 7.654C46.0328 7.95267 46.1681 8.34933 46.1774 8.844C46.1774 9.28267 46.0561 9.67467 45.8134 10.02C45.5708 10.3653 45.2254 10.636 44.7774 10.832C44.3388 11.028 43.8208 11.126 43.2234 11.126Z" fill="#4D4D52"/>
</svg>
