<svg width="107" height="24" viewBox="0 0 107 24" fill="none" xmlns="http://www.w3.org/2000/svg">
<path d="M-0.000198364 23.6161V0.767259H6.99395C12.0511 0.767259 14.5796 2.744 14.5796 6.69749C14.5796 7.97656 14.2549 9.08121 13.6053 10.0114C12.9558 10.9417 12.0743 11.5231 10.9608 11.7556C12.2599 11.9417 13.269 12.5114 13.9881 13.4649C14.7304 14.3952 15.1132 15.6161 15.1364 17.1277C15.1364 21.4533 12.3179 23.6161 6.68078 23.6161H-0.000198364ZM7.20273 20.4766C8.73378 20.4766 9.82408 20.1394 10.4736 19.4649C11.1232 18.7905 11.4479 17.8952 11.4479 16.7789C11.4479 15.6394 11.0884 14.8138 10.3692 14.3021C9.6733 13.7905 8.5598 13.5347 7.02874 13.5347H3.61866V20.4766H7.20273ZM11.0304 6.97656C11.0304 4.93005 9.76609 3.90679 7.23753 3.90679H3.61866V10.3952H6.95915C9.6733 10.3952 11.0304 9.25563 11.0304 6.97656Z" fill="#101010"/>
<path d="M17.5374 15.3487C17.5374 12.5347 18.1637 10.4068 19.4164 8.96493C20.6691 7.49982 22.4089 6.76726 24.6359 6.76726C26.8629 6.76726 28.5795 7.43005 29.7858 8.75563C31.0153 10.058 31.6532 11.9766 31.6996 14.5114L31.5604 17.0928H21.3998C21.6086 19.6045 22.8613 20.8603 25.1578 20.8603C26.7585 20.8603 28.4519 20.5696 30.2382 19.9882L30.9689 23.0231C30.2266 23.2789 29.2639 23.4998 28.0808 23.6859C26.8977 23.8952 25.9234 23.9998 25.1578 23.9998C20.0775 23.9998 17.5374 21.1161 17.5374 15.3487ZM24.7751 10.0114C23.6848 10.0114 22.8613 10.337 22.3045 10.9882C21.771 11.6161 21.4694 12.6742 21.3998 14.1626H27.8372C27.8372 11.3952 26.8165 10.0114 24.7751 10.0114Z" fill="#101010"/>
<path d="M34.031 22.8487L34.7965 19.6742C37.0003 20.3719 38.7518 20.7207 40.0509 20.7207C41.3499 20.7207 42.2315 20.5928 42.6954 20.337C43.1594 20.1045 43.3913 19.6859 43.3913 19.0812C43.3913 18.4766 43.1826 18.0463 42.765 17.7905C42.3474 17.5347 41.5587 17.2673 40.3988 16.9882C38.1022 16.43 36.5016 15.8138 35.5969 15.1394C34.6922 14.4417 34.2398 13.3138 34.2398 11.7556C34.2398 8.43005 36.374 6.76726 40.6424 6.76726C42.475 6.76726 44.5976 7.06958 47.0102 7.67424L46.3491 10.9882C44.0525 10.337 42.2778 10.0114 41.0252 10.0114C39.7725 10.0114 38.9258 10.1277 38.485 10.3603C38.0674 10.5696 37.8587 10.9417 37.8587 11.4766C37.8587 12.0114 38.0674 12.4068 38.485 12.6626C38.9258 12.8952 40.0393 13.2556 41.8255 13.744C43.6117 14.2324 44.9224 14.8021 45.7575 15.4533C46.5926 16.0812 47.0102 17.1626 47.0102 18.6975C47.0102 22.2091 44.8528 23.9649 40.538 23.9649C38.5198 23.9649 36.3508 23.5928 34.031 22.8487Z" fill="#101010"/>
<path d="M53.2736 7.04633L53.3432 8.05796C55.2222 7.19749 56.6953 6.76726 57.7624 6.76726C59.6414 6.76726 61.0217 7.3254 61.9032 8.44168C62.8079 9.5347 63.2603 11.2556 63.2603 13.6045V23.6161H59.6762V13.7091C59.6762 12.5928 59.479 11.7207 59.0847 11.0928C58.6903 10.4649 58.0756 10.151 57.2404 10.151C56.4053 10.151 55.1178 10.558 53.378 11.3719V23.6161H49.7939V7.04633H53.2736Z" fill="#101010"/>
<path d="M65.9744 23.6161V20.4068H71.1591V10.2556H66.2528V7.04633H74.7432V20.4068H79.6496V23.6161H65.9744ZM72.7598 4.63935C72.0639 4.63935 71.5071 4.43005 71.0896 4.01145C70.6952 3.56958 70.498 2.99982 70.498 2.30214C70.498 1.60447 70.7068 1.04633 71.1244 0.627724C71.5419 0.209119 72.0987 -0.000183105 72.7946 -0.000183105C73.5137 -0.000183105 74.0589 0.209119 74.43 0.627724C74.8244 1.02307 75.0216 1.58121 75.0216 2.30214C75.0216 3.02307 74.8244 3.59284 74.43 4.01145C74.0357 4.43005 73.4789 4.63935 72.7598 4.63935Z" fill="#101010"/>
<path d="M82.5377 23.6161V0.418422H86.1217V13.7091L88.4183 13.4649C89.7174 11.7905 90.8541 9.97656 91.8284 8.02307L92.3156 7.04633H96.2128C94.7514 10.1394 93.1275 12.7207 91.3413 14.7905C92.8259 16.9068 94.3222 19.4068 95.83 22.2905L96.526 23.6161H92.4548C91.3181 21.151 90.019 18.7905 88.5575 16.5347L86.1217 16.7789V23.6161H82.5377Z" fill="#101010"/>
<path d="M101.954 23.6161V18.558H107V23.6161H101.954Z" fill="#101010"/>
</svg>
