<svg version="1.2" xmlns="http://www.w3.org/2000/svg" viewBox="0 0 32 32" width="32" height="32"><style>.a{fill:#fff}.b{opacity:.7;fill:#000958}</style><path class="a" d="m16 32c-8.8 0-16-7.2-16-16 0-8.8 7.2-16 16-16 8.8 0 16 7.2 16 16 0 8.8-7.2 16-16 16z"/><path class="b" d="m21.4 9h-10.8c-0.9 0-1.6 0.7-1.6 1.6v10.8c0 0.9 0.7 1.6 1.6 1.6h5.4v-5.4h-1.6v-2h1.6v-1.6c0-1.6 0.9-2.8 2.9-2.8h1.4v2h-0.9c-0.8 0-1.1 0.6-1.1 1.1v1.3h2l-0.4 2h-1.6v5.4h3.1c0.9 0 1.6-0.7 1.6-1.6v-10.8c0-0.9-0.7-1.6-1.6-1.6z"/></svg>