<svg version="1.2" xmlns="http://www.w3.org/2000/svg" viewBox="0 0 32 32" width="32" height="32"><style>.a{fill:#fff}.b{fill:none;stroke:#fff}.c{opacity:.7;fill:#000958}</style><path class="a" d="m16 32c-8.8 0-16-7.2-16-16 0-8.8 7.2-16 16-16 8.8 0 16 7.2 16 16 0 8.8-7.2 16-16 16z"/><path class="b" d="m16 31.5c-8.6 0-15.5-6.9-15.5-15.5 0-8.6 6.9-15.5 15.5-15.5 8.6 0 15.5 6.9 15.5 15.5 0 8.6-6.9 15.5-15.5 15.5z"/><path fill-rule="evenodd" class="c" d="m22.8 9.2q0.2 0.3 0.2 0.6v12.4q0 0.3-0.2 0.6-0.3 0.2-0.6 0.2h-12.4q-0.3 0-0.6-0.2-0.2-0.3-0.2-0.6v-12.4q0-0.3 0.2-0.6 0.3-0.2 0.6-0.2h12.4q0.3 0 0.6 0.2zm-11.7 11.7h2.1v-6.7h-2.1zm1.9-7.9c0.2-0.2 0.3-0.5 0.3-0.8 0-0.4-0.1-0.7-0.3-0.9-0.3-0.2-0.6-0.4-0.9-0.4-0.3 0-0.6 0.2-0.8 0.4-0.3 0.2-0.4 0.5-0.4 0.9 0 0.3 0.1 0.6 0.4 0.8 0.2 0.2 0.5 0.4 0.8 0.4 0.3 0 0.6-0.2 0.9-0.4zm7.9 7.9v-3.6c0-1.8-0.4-3.2-2.5-3.2-1 0-1.6 0.6-1.9 1.1h-0.1v-0.9h-1.9v6.6h2v-3.3c0-0.8 0.2-1.7 1.3-1.7 1 0 1.1 1 1.1 1.8v3.2z"/></svg>