<svg version="1.2" xmlns="http://www.w3.org/2000/svg" viewBox="0 0 32 32" width="32" height="32"><style>.a{fill:#fff}.b{fill:none;stroke:#fff}.c{opacity:.7;fill:#000958}</style><path class="a" d="m16 32c-8.8 0-16-7.2-16-16 0-8.8 7.2-16 16-16 8.8 0 16 7.2 16 16 0 8.8-7.2 16-16 16z"/><path class="b" d="m16 31.5c-8.6 0-15.5-6.9-15.5-15.5 0-8.6 6.9-15.5 15.5-15.5 8.6 0 15.5 6.9 15.5 15.5 0 8.6-6.9 15.5-15.5 15.5z"/><path fill-rule="evenodd" class="c" d="m18.9 9c0.7 0.1 1.2 0.2 1.7 0.4q0.7 0.2 1.2 0.8 0.6 0.5 0.8 1.2c0.2 0.5 0.3 1 0.4 1.7 0 0.8 0 1 0 2.9 0 1.9 0 2.1 0 2.9-0.1 0.7-0.2 1.2-0.4 1.7q-0.2 0.7-0.8 1.2-0.5 0.6-1.2 0.8c-0.5 0.2-1 0.3-1.7 0.4-0.8 0-1 0-2.9 0-1.9 0-2.1 0-2.9 0-0.7-0.1-1.2-0.2-1.7-0.4q-0.7-0.2-1.2-0.8-0.6-0.5-0.8-1.2c-0.2-0.5-0.3-1-0.4-1.7 0-0.8 0-1 0-2.9 0-1.9 0-2.1 0-2.9 0.1-0.7 0.2-1.2 0.4-1.7q0.2-0.7 0.8-1.2 0.5-0.6 1.2-0.8c0.5-0.2 1-0.3 1.7-0.4 0.8 0 1 0 2.9 0 1.9 0 2.1 0 2.9 0zm-5.7 1.3c-0.7 0-1.1 0.1-1.3 0.2-0.4 0.2-0.6 0.3-0.8 0.6-0.3 0.2-0.4 0.4-0.6 0.8-0.1 0.2-0.2 0.6-0.2 1.3 0 0.7 0 0.9 0 2.8 0 1.9 0 2.1 0 2.8 0 0.7 0.1 1.1 0.2 1.3q0.2 0.5 0.6 0.8 0.3 0.4 0.8 0.6c0.2 0.1 0.6 0.2 1.3 0.2 0.7 0 0.9 0 2.8 0 1.9 0 2.1 0 2.8 0 0.7 0 1.1-0.1 1.3-0.2 0.4-0.2 0.6-0.3 0.8-0.6q0.4-0.3 0.6-0.8c0.1-0.2 0.2-0.6 0.2-1.3 0-0.7 0-0.9 0-2.8 0-1.9 0-2.1 0-2.8 0-0.7-0.1-1.1-0.2-1.3-0.2-0.4-0.3-0.6-0.6-0.8-0.2-0.3-0.4-0.4-0.8-0.6-0.2-0.1-0.6-0.2-1.3-0.2-0.7 0-0.9 0-2.8 0-1.9 0-2.1 0-2.8 0zm5.3 3.2c0.7 0.6 1.1 1.5 1.1 2.5 0 1-0.4 1.9-1.1 2.5-0.6 0.7-1.5 1.1-2.5 1.1q-0.7 0-1.4-0.3-0.6-0.3-1.1-0.8-0.5-0.5-0.8-1.1-0.3-0.7-0.3-1.4 0-0.7 0.3-1.4 0.3-0.6 0.8-1.1 0.5-0.5 1.1-0.8 0.7-0.3 1.4-0.3c1 0 1.9 0.4 2.5 1.1zm-0.9 4.1c0.5-0.4 0.7-1 0.7-1.6 0-0.6-0.2-1.2-0.7-1.6-0.4-0.5-1-0.7-1.6-0.7-0.6 0-1.2 0.2-1.6 0.7-0.5 0.4-0.7 1-0.7 1.6 0 0.6 0.2 1.2 0.7 1.6 0.4 0.5 1 0.7 1.6 0.7 0.6 0 1.2-0.2 1.6-0.7zm3-5.3q0 0.1-0.1 0.3-0.1 0.1-0.2 0.3-0.1 0.1-0.2 0.1-0.2 0.1-0.4 0.1-0.1 0-0.3-0.1-0.1 0-0.3-0.1-0.1-0.2-0.1-0.3-0.1-0.2-0.1-0.3 0-0.4 0.2-0.6 0.3-0.3 0.6-0.3 0.4 0 0.6 0.3 0.3 0.2 0.3 0.6z"/></svg>