<svg width="80" height="76" viewBox="0 0 80 76" fill="none" xmlns="http://www.w3.org/2000/svg">
<g opacity="0.1" filter="url(#filter0_dd_2_396)">
<rect x="20" y="18" width="40" height="40" rx="8" fill="#4AB5E3"/>
</g>
<path d="M41.7909 37.8946C44.5188 37.8946 46.7378 35.6752 46.7378 32.9473C46.7378 30.2194 44.5188 28 41.7909 28C39.0629 28 36.8436 30.2194 36.8436 32.9473C36.8436 35.6752 39.0629 37.8946 41.7909 37.8946ZM41.205 30.0393V29.9049C41.205 29.5811 41.4671 29.319 41.7909 29.319C42.1143 29.319 42.3768 29.5811 42.3768 29.9049V30.0401C43.074 30.1897 43.5986 30.8107 43.5986 31.5521C43.5986 31.8755 43.3361 32.138 43.0127 32.138C42.6889 32.138 42.4268 31.8755 42.4268 31.5521C42.4268 31.3455 42.2584 31.1771 42.0518 31.1771H41.5264C41.3198 31.1771 41.1515 31.3455 41.1515 31.5521C41.1515 31.6704 41.2081 31.7829 41.3034 31.8532L41.7909 32.2142L42.9752 33.0907C43.3642 33.3785 43.5986 33.839 43.6017 34.3234V34.3288C43.6044 34.7421 43.4462 35.1319 43.1556 35.426C42.94 35.6444 42.6705 35.7908 42.3768 35.8526V35.9897C42.3768 36.3135 42.1143 36.5756 41.7909 36.5756C41.4671 36.5756 41.205 36.3135 41.205 35.9897V35.8545C40.9191 35.7936 40.6562 35.653 40.4437 35.4428C40.1496 35.1526 39.9863 34.7651 39.984 34.3519C39.982 34.0285 40.2425 33.7644 40.566 33.7625H40.5699C40.8917 33.7625 41.1538 34.0226 41.1558 34.3449C41.1565 34.5471 41.3192 34.7175 41.5327 34.7175C41.8564 34.7155 41.7358 34.7162 42.0573 34.7144C42.2652 34.7127 42.4315 34.5439 42.4299 34.3367V34.3312C42.4291 34.214 42.3725 34.1023 42.2779 34.0324L41.7909 33.6719L40.6062 32.7954C40.214 32.5048 39.9797 32.0399 39.9797 31.5521C39.9797 30.8092 40.5058 30.1877 41.205 30.0393Z" fill="#4AB5E3"/>
<path d="M33.7747 40.7097C33.6245 40.4494 33.2909 40.3588 33.029 40.5099L30.273 42.1008C30.012 42.2519 29.9225 42.5856 30.0732 42.8469L32.8899 47.7256C33.0407 47.9864 33.3742 48.076 33.6357 47.9254L36.3916 46.3341C36.653 46.1834 36.7422 45.8496 36.5915 45.5883L33.7747 40.7097Z" fill="#4AB5E3"/>
<path d="M49.5664 39.7359C49.3012 39.3675 48.788 39.2843 48.42 39.5496C47.3037 40.3538 45.1601 41.8982 44.9898 42.0213C44.9113 42.0881 44.8289 42.1486 44.743 42.2021C44.4059 42.4142 44.0149 42.5275 43.6067 42.5275H40.8003C40.4769 42.5275 40.2144 42.2654 40.2144 41.9416C40.2144 41.6174 40.4772 41.3557 40.8003 41.3557H43.8016C44.2426 41.3557 44.5957 40.9885 44.5773 40.5468C44.5602 40.1276 44.2024 39.8027 43.7829 39.8027H41.4983C41.3436 39.639 41.1741 39.489 40.9924 39.355C40.3679 38.8945 39.5961 38.6223 38.7606 38.6223C37.2751 38.6223 35.7971 39.5582 35.1843 40.8073L37.581 44.9582H42.0767C42.9595 44.9582 43.829 44.7324 44.5941 44.2922C44.8594 44.1399 45.1433 43.9567 45.4511 43.7356C46.7409 42.8091 49.3778 40.8842 49.3797 40.8831C49.7485 40.6182 49.832 40.1042 49.5664 39.7359Z" fill="#4AB5E3"/>
<defs>
<filter id="filter0_dd_2_396" x="0" y="0" width="80" height="76" filterUnits="userSpaceOnUse" color-interpolation-filters="sRGB">
<feFlood flood-opacity="0" result="BackgroundImageFix"/>
<feColorMatrix in="SourceAlpha" type="matrix" values="0 0 0 0 0 0 0 0 0 0 0 0 0 0 0 0 0 0 127 0" result="hardAlpha"/>
<feOffset dx="4" dy="2"/>
<feGaussianBlur stdDeviation="8"/>
<feColorMatrix type="matrix" values="0 0 0 0 0.534167 0 0 0 0 0.645967 0 0 0 0 0.749167 0 0 0 0.48 0"/>
<feBlend mode="normal" in2="BackgroundImageFix" result="effect1_dropShadow_2_396"/>
<feColorMatrix in="SourceAlpha" type="matrix" values="0 0 0 0 0 0 0 0 0 0 0 0 0 0 0 0 0 0 127 0" result="hardAlpha"/>
<feOffset dx="-4" dy="-2"/>
<feGaussianBlur stdDeviation="8"/>
<feColorMatrix type="matrix" values="0 0 0 0 1 0 0 0 0 1 0 0 0 0 1 0 0 0 1 0"/>
<feBlend mode="normal" in2="effect1_dropShadow_2_396" result="effect2_dropShadow_2_396"/>
<feBlend mode="normal" in="SourceGraphic" in2="effect2_dropShadow_2_396" result="shape"/>
</filter>
</defs>
</svg>
